<?xml version="1.0" encoding="UTF-8"?>
<svg xmlns="http://www.w3.org/2000/svg" xmlns:xlink="http://www.w3.org/1999/xlink" version="1.1" viewBox="0 0 1134 213">
  <defs>
    <style>
      .cls-1 {
        fill: #58595b;
      }

      .cls-2 {
        fill: url(#linear-gradient-3);
      }

      .cls-3 {
        fill: url(#linear-gradient-2);
      }

      .cls-4 {
        fill: #90181b;
      }

      .cls-5 {
        fill: #006db0;
      }

      .cls-6 {
        fill: url(#linear-gradient);
      }

      .cls-7 {
        fill: #ecbc1d;
      }

      .cls-8 {
        fill: #ecbc1e;
      }

      .cls-9 {
        fill: none;
        stroke: #58595b;
        stroke-width: 3.2px;
      }

      .cls-10 {
        fill: #00ade4;
      }

      .cls-11 {
        fill: #8f181b;
      }
    </style>
    <linearGradient id="linear-gradient" x1="483.8" y1="123.8" x2="512.4" y2="43.5" gradientTransform="translate(0 214) scale(1 -1)" gradientUnits="userSpaceOnUse">
      <stop offset="0" stop-color="#00ade5"/>
      <stop offset=".8" stop-color="#006db0"/>
    </linearGradient>
    <linearGradient id="linear-gradient-2" x1="553.4" y1="190" x2="558.8" y2="147.1" gradientTransform="translate(0 214) scale(1 -1)" gradientUnits="userSpaceOnUse">
      <stop offset="0" stop-color="#00ade5"/>
      <stop offset=".8" stop-color="#006db0"/>
    </linearGradient>
    <linearGradient id="linear-gradient-3" x1="593.1" y1="117.7" x2="611.4" y2="40.9" gradientTransform="translate(0 214) scale(1 -1)" gradientUnits="userSpaceOnUse">
      <stop offset="0" stop-color="#00ade5"/>
      <stop offset=".8" stop-color="#006db0"/>
    </linearGradient>
  </defs>
  <!-- Generator: Adobe Illustrator 28.7.7, SVG Export Plug-In . SVG Version: 1.2.0 Build 194)  -->
  <g>
    <g id="Layer_1">
      <g>
        <path class="cls-1" d="M34,173.6l-16.1,17.3v-17.3h-8.2v37.9h8.2v-11.3l26.3-26.6h-10.2ZM32.1,192.7l-5.8,5.8,8.3,13.1h9.8l-12.3-18.8Z"/>
        <path class="cls-1" d="M91.4,181.5c-1.5-2.9-3.8-5-6.7-6.5-2.9-1.4-6.4-2.1-10.5-2.1s-7.5.7-10.4,2.1c-2.9,1.4-5.1,3.6-6.7,6.5-1.6,2.9-2.3,6.6-2.3,11s.8,8,2.3,10.9c1.5,2.9,3.8,5.1,6.7,6.5,2.9,1.4,6.4,2.2,10.4,2.2s7.6-.7,10.5-2.2c2.9-1.4,5.1-3.6,6.7-6.5,1.6-2.9,2.3-6.6,2.3-10.9s-.8-8.1-2.3-11ZM85.3,193.4c0,1.9-.2,3.6-.7,5.1-.5,1.5-1.2,2.8-2.1,3.8-.9,1-2.1,1.8-3.4,2.3-1.4.5-3,.8-4.7.8s-3.3-.3-4.7-.8c-1.4-.5-2.5-1.3-3.4-2.3-.9-1-1.6-2.3-2.1-3.8-.5-1.5-.7-3.2-.7-5.1v-1.7c0-2,.2-3.7.7-5.2.5-1.5,1.1-2.8,2.1-3.8.9-1,2.1-1.8,3.4-2.3,1.4-.5,2.9-.8,4.7-.8s3.4.3,4.7.8c1.4.5,2.5,1.3,3.4,2.3.9,1,1.6,2.3,2.1,3.8.5,1.5.7,3.2.7,5.2v1.7Z"/>
        <path class="cls-1" d="M137.9,173.6l-5.4,19.3c-.3.9-.5,1.9-.7,2.9-.2,1-.4,1.9-.6,2.8-.2.9-.3,1.6-.4,2.2h-.4c-.2-.7-.3-1.6-.6-2.5-.2-.9-.5-1.9-.7-2.9-.2-1-.4-1.8-.7-2.5l-5.4-19.4h-12.6v37.9h7.8v-18c0-1.2,0-2.6,0-4,0-1.4,0-2.9-.1-4.3,0-1.4,0-2.6-.1-3.6h.4c.2.8.5,1.8.7,2.9.2,1.1.5,2.2.8,3.3.3,1.1.5,2,.7,2.8l6,20.9h7.2l5.9-21c.3-.9.5-1.9.8-3.1.3-1.2.6-2.4.9-3.5.3-1.1.4-1.8.5-2.2h.5c0,.4,0,1.2-.1,2.4,0,1.2,0,2.7-.1,4.4,0,1.7,0,3.3,0,5v18h8.1v-37.9h-12.3Z"/>
        <path class="cls-1" d="M200.5,181.9c-1.5-2.8-3.6-4.9-6.4-6.2-2.8-1.4-6.1-2-10.1-2h-15.5v26.8h8.2v-20.1h7.2c1.7,0,3.1.2,4.4.7,1.3.5,2.4,1.2,3.2,2.2.8.9,1.5,2.1,1.9,3.5.5,1.4.7,3.1.7,4.9v1.7c0,1.9-.2,3.5-.7,4.9-.4,1.4-1.1,2.6-1.9,3.5-.8.9-1.9,1.6-3.2,2.1-1.3.5-2.8.7-4.4.7h-15.4v6.8h15.5c4,0,7.3-.7,10.1-2.1,2.8-1.4,4.9-3.4,6.4-6.3,1.5-2.8,2.3-6.4,2.3-10.7s-.8-7.9-2.3-10.7"/>
        <path class="cls-1" d="M227.7,173.6h-8.2v37.9h8.2v-37.9Z"/>
        <path class="cls-1" d="M262.9,197.3h11.3v.4c0,1.7-.4,3-1.3,4.2-.9,1.1-2.1,2-3.6,2.6-1.5.6-3.3.9-5.3.9s-4.4-.4-6-1.3c-1.6-.8-2.9-2.2-3.7-3.9-.8-1.8-1.2-4.1-1.2-6.8v-1.7c0-2,.2-3.7.7-5.3.5-1.5,1.2-2.8,2.1-3.8.9-1,2.1-1.8,3.6-2.3,1.4-.5,3.1-.7,5-.7s2.5.2,3.6.5c1.1.3,2.2.7,3,1.3s1.6,1.3,2.1,2.2c.5.9.7,1.9.7,3h8.3c0-2.4-.5-4.4-1.4-6.1-.9-1.7-2.2-3.1-3.9-4.3-1.7-1.1-3.6-2-5.8-2.6-2.2-.6-4.5-.8-7-.8-4.1,0-7.7.7-10.6,2.1-3,1.4-5.2,3.6-6.7,6.5-1.6,2.9-2.3,6.6-2.3,11,0,6.7,1.6,11.6,4.8,14.8s7.8,4.8,13.8,4.8,3.7-.2,5.2-.5c1.5-.4,3-.9,4.2-1.6s2.5-1.6,3.6-2.7l.7,4.1h5.4v-20.5h-19.5v6.3h0Z"/>
        <path class="cls-1" d="M308.6,173.6h-8.2v37.9h8.2v-37.9Z"/>
        <path class="cls-7" d="M216.1,105.2h-17.7v17.7c0,2.3,1.9,4.2,4.2,4.2h17.7v-17.7c0-2.3-1.9-4.2-4.2-4.2Z"/>
        <path class="cls-10" d="M226.9,30.7h-19.8c-4.8,0-8.7-3.9-8.7-8.7v-13.2c0-4.8-3.9-8.8-8.8-8.8h-21.9v21.9c0,4.8,3.9,8.8,8.8,8.8h13.2,0c4.8,0,8.8,3.9,8.8,8.8h0s0,19.8,0,19.8c0,4.8-3.9,8.7-8.7,8.7h-19.8c-4.8,0-8.8,3.9-8.8,8.8v19.7c0,4.8,3.9,8.8,8.8,8.8h28.5v-28.6h0c0-4.8,3.9-8.7,8.8-8.7h0,19.8c4.8,0,8.8-3.9,8.8-8.8v-19.7c0-4.8-3.9-8.8-8.8-8.8"/>
        <path class="cls-11" d="M116.2,18.7h-17.7v17.7c0,2.3,1.9,4.2,4.2,4.2h17.7v-17.7c0-2.3-1.9-4.2-4.2-4.2Z"/>
        <path class="cls-5" d="M151.2,108.6h-17.6c-7.2,0-13.1-5.9-13.1-13.2h0c0,0,0-15.3,0-15.3,0-4.8,3.9-8.7,8.7-8.7h13.2c4.8,0,8.8-3.9,8.8-8.8v-21.9h-30.7v22h0c0,4.8-3.9,8.7-8.7,8.7h-19.8c-4.8,0-8.8,3.9-8.8,8.8v28.5h24.2,0c7.2,0,13.1,5.9,13.2,13.1v17.6c0,7.3,5.9,13.2,13.2,13.2h30.7v-30.7c0-7.3-5.9-13.2-13.2-13.2"/>
        <path class="cls-9" d="M387.3,0v212.2"/>
        <path class="cls-1" d="M689.2,94v-33.1h13.5c3.4,0,6.4.6,8.8,1.8,2.4,1.2,4.3,3,5.5,5.4,1.3,2.4,2,5.5,2,9.3s-.7,6.9-2,9.3c-1.3,2.4-3.1,4.3-5.5,5.4-2.4,1.2-5.3,1.8-8.8,1.8h-13.5ZM696.3,88.1h6.3c1.4,0,2.7-.2,3.9-.6,1.1-.4,2.1-1,2.8-1.8.7-.8,1.3-1.9,1.7-3.1.4-1.3.6-2.7.6-4.3v-1.4c0-1.6-.2-3.1-.6-4.3-.4-1.3-.9-2.3-1.7-3.1-.7-.8-1.7-1.5-2.8-1.9-1.1-.4-2.4-.7-3.9-.7h-6.3v21.3ZM724.2,64.9v-5.8h6.7v5.8h-6.7ZM724.2,94v-25.3h6.7v25.3h-6.7ZM737.1,94v-25.3h5.5l.5,4h.3c.3-.8.7-1.6,1.3-2.3.5-.7,1.2-1.3,1.9-1.7.8-.4,1.7-.6,2.7-.6s1,0,1.5.2c.5,0,.8.2,1,.3v6.1h-2.1c-1,0-1.9.1-2.6.4-.7.3-1.4.7-1.9,1.3-.5.6-.9,1.3-1.2,2.1-.2.8-.3,1.8-.3,2.9v12.7h-6.7ZM766.4,94.6c-2.8,0-5.1-.5-7-1.4-1.9-1-3.3-2.4-4.3-4.4-1-2-1.4-4.4-1.4-7.5s.5-5.5,1.4-7.5c1-2,2.4-3.4,4.2-4.3,1.9-1,4.2-1.4,6.9-1.4s4.7.5,6.5,1.4c1.8.9,3.1,2.3,4,4.2.9,1.9,1.3,4.4,1.3,7.4v1.7h-17.7c0,1.5.3,2.7.7,3.8.4,1,1,1.8,1.9,2.3.9.5,2,.7,3.4.7s1.5,0,2.1-.3c.6-.2,1.2-.5,1.6-.9.5-.4.8-.9,1.1-1.4.3-.6.4-1.2.4-2h6.6c0,1.6-.3,3-.9,4.2-.6,1.2-1.4,2.2-2.4,3-1,.8-2.3,1.4-3.7,1.8-1.4.4-3,.6-4.7.6ZM760.5,78.6h10.7c0-1-.1-1.8-.4-2.5-.2-.7-.5-1.3-1-1.7-.4-.4-.9-.8-1.5-1-.6-.2-1.2-.3-2-.3-1.2,0-2.2.2-3.1.6-.8.4-1.4,1-1.9,1.8-.4.8-.7,1.8-.9,3.1ZM783,94v-34.9h6.7v20.1l8.9-10.6h7.9l-8.7,9.9,9.1,15.4h-7.7l-5.8-10.7-3.7,3.6v7.1h-6.7ZM818.1,94.6c-1.6,0-2.9-.3-3.9-.9-1-.6-1.7-1.3-2.2-2.3-.5-1-.7-2.1-.7-3.3v-14.3h-3.1v-5.2h3.4l1.3-7.2h5.2v7.2h4.6v5.2h-4.6v13.2c0,.8.2,1.4.5,1.8.4.4.9.6,1.7.6h2.4v4.4c-.4.1-.8.2-1.3.3-.5.1-1.1.2-1.6.3-.6,0-1.1.1-1.6.1ZM838.7,94.6c-2.8,0-5.1-.5-7-1.4-1.9-1-3.4-2.4-4.4-4.4-1-2-1.5-4.5-1.5-7.5s.5-5.5,1.5-7.5c1-2,2.5-3.4,4.4-4.3,1.9-1,4.3-1.4,7-1.4s5.2.5,7.1,1.4c1.9.9,3.4,2.4,4.4,4.3,1,1.9,1.5,4.4,1.5,7.5s-.5,5.5-1.5,7.5c-1,2-2.5,3.4-4.4,4.4-1.9.9-4.3,1.4-7.1,1.4ZM838.7,89.4c1.5,0,2.7-.3,3.5-.8.9-.5,1.6-1.4,2-2.5.4-1.1.6-2.5.6-4.1v-1.2c0-1.6-.2-3-.6-4.1-.4-1.1-1.1-2-2-2.5-.9-.6-2-.9-3.5-.9s-2.6.3-3.5.9c-.9.5-1.5,1.4-1.9,2.5-.4,1.1-.6,2.5-.6,4.1v1.2c0,1.6.2,3,.6,4.1.4,1.1,1.1,2,1.9,2.5.9.5,2.1.8,3.5.8ZM856.5,94v-25.3h5.5l.5,4h.3c.3-.8.7-1.6,1.3-2.3.5-.7,1.2-1.3,1.9-1.7.8-.4,1.7-.6,2.7-.6s1,0,1.5.2c.5,0,.8.2,1,.3v6.1h-2.1c-1,0-1.9.1-2.7.4-.7.3-1.4.7-1.9,1.3-.5.6-.9,1.3-1.2,2.1-.2.8-.3,1.8-.3,2.9v12.7h-6.7ZM881.1,94.6c-.8,0-1.7,0-2.7-.3-.9-.2-1.8-.5-2.6-1-.8-.5-1.5-1.2-2.1-2.2-.5-1-.8-2.2-.8-3.7s.4-3.2,1.2-4.4c.8-1.2,1.9-2.1,3.3-2.7,1.4-.7,3.2-1.1,5.2-1.4,2-.3,4.2-.4,6.6-.4v-1.9c0-.7-.1-1.4-.4-1.9-.2-.5-.6-1-1.3-1.3-.6-.3-1.4-.5-2.5-.5s-1.9.1-2.6.4c-.6.3-1.1.6-1.4,1-.3.4-.4.8-.4,1.3v.6h-6.5c0-.2,0-.3,0-.4v-.6c0-1.5.5-2.7,1.3-3.8.9-1.1,2.2-1.9,3.8-2.5,1.6-.6,3.5-.9,5.7-.9s4.3.3,5.9.9c1.6.6,2.8,1.5,3.7,2.7.9,1.2,1.3,2.7,1.3,4.5v11.5c0,.6.2,1,.5,1.3.4.3.7.4,1.2.4h1.6v4.4c-.3.2-.8.3-1.5.5-.7.2-1.5.3-2.5.3s-1.8-.1-2.5-.4c-.7-.3-1.3-.6-1.8-1.1-.5-.5-.8-1.1-1-1.8h-.3c-.5.7-1.2,1.3-2,1.8-.8.5-1.7.9-2.7,1.2-1,.3-2.2.4-3.6.4ZM883.3,89.5c.9,0,1.7-.1,2.4-.4.7-.3,1.3-.7,1.8-1.1.5-.5.9-1.1,1.1-1.7.3-.7.4-1.4.4-2.2v-1.4c-1.8,0-3.4.1-4.8.4-1.4.2-2.5.6-3.4,1.2-.8.6-1.2,1.4-1.2,2.4s.1,1.1.4,1.5c.3.4.7.7,1.3,1,.5.2,1.2.3,2,.3ZM909.9,94.6c-1.6,0-2.9-.3-3.9-.9-1-.6-1.7-1.3-2.2-2.3-.4-1-.7-2.1-.7-3.3v-14.3h-3.1v-5.2h3.4l1.3-7.2h5.2v7.2h4.6v5.2h-4.6v13.2c0,.8.2,1.4.5,1.8.4.4.9.6,1.7.6h2.4v4.4c-.4.1-.8.2-1.3.3-.5.1-1.1.2-1.6.3-.6,0-1.1.1-1.6.1ZM938.8,94.6c-2.5,0-4.7-.4-6.5-1.1-1.8-.8-3.1-1.9-4.1-3.4-.9-1.5-1.4-3.4-1.4-5.7v-1.5h7v1.5c0,1.5.4,2.6,1.2,3.3.8.7,2.1,1.1,3.7,1.1s2.8-.5,3.6-1.5c.8-1.1,1.2-2.6,1.2-4.5v-21.7h7.2v21.7c0,2.7-.5,4.9-1.4,6.7-.9,1.8-2.3,3.1-4.1,4-1.8.9-3.9,1.3-6.5,1.3ZM968.8,94.6c-2.8,0-5.1-.5-7-1.4-1.9-1-3.3-2.4-4.3-4.4-1-2-1.4-4.4-1.4-7.5s.5-5.5,1.4-7.5c1-2,2.4-3.4,4.2-4.3,1.9-1,4.2-1.4,6.9-1.4s4.7.5,6.5,1.4c1.8.9,3.1,2.3,4,4.2.9,1.9,1.3,4.4,1.3,7.4v1.7h-17.7c0,1.5.3,2.7.7,3.8.4,1,1,1.8,1.9,2.3.9.5,2,.7,3.4.7s1.5,0,2.1-.3c.6-.2,1.2-.5,1.6-.9.4-.4.8-.9,1.1-1.4.3-.6.4-1.2.4-2h6.6c0,1.6-.3,3-.9,4.2-.6,1.2-1.4,2.2-2.4,3-1,.8-2.3,1.4-3.7,1.8-1.4.4-3,.6-4.7.6ZM962.9,78.6h10.7c0-1-.1-1.8-.4-2.5-.2-.7-.5-1.3-1-1.7-.4-.4-.9-.8-1.5-1-.6-.2-1.2-.3-2-.3-1.2,0-2.2.2-3.1.6-.8.4-1.4,1-1.9,1.8-.4.8-.7,1.8-.9,3.1ZM985.4,94v-25.3h5.5l.5,3.5h.3c.6-.8,1.3-1.6,2.1-2.2.8-.6,1.8-1.1,2.8-1.4,1-.3,2.2-.5,3.4-.5s3.1.3,4.4.9c1.3.6,2.2,1.6,2.9,2.9.7,1.3,1.1,3,1.1,5.2v17h-6.7v-15.9c0-.8,0-1.5-.3-2-.2-.6-.5-1-.9-1.4-.4-.4-.8-.7-1.3-.8-.5-.2-1.2-.2-1.8-.2-1,0-1.9.2-2.7.7s-1.4,1.1-1.9,2c-.5.8-.7,1.8-.7,2.9v14.8h-6.7ZM1023.4,94.6c-2.1,0-3.9-.5-5.4-1.4-1.5-1-2.7-2.4-3.5-4.4-.8-2-1.3-4.5-1.3-7.5s.4-5.5,1.3-7.5c.9-2,2-3.4,3.5-4.3,1.5-.9,3.2-1.4,5.2-1.4s2.1.1,3,.4c1,.2,1.8.6,2.5,1.1.7.5,1.4,1.1,1.9,1.9h.3v-12.3h6.7v34.8h-5.5l-.5-3.4h-.3c-.8,1.3-1.9,2.4-3.3,3-1.3.6-2.9,1-4.5,1ZM1025.5,89.1c1.2,0,2.3-.3,3-.9.8-.6,1.4-1.4,1.8-2.5.4-1.1.6-2.4.6-3.9v-.9c0-1.1-.1-2.2-.3-3.1-.2-.9-.5-1.7-1-2.3-.5-.6-1-1.1-1.7-1.4-.7-.4-1.5-.5-2.4-.5-1.4,0-2.4.3-3.2.8-.8.5-1.4,1.3-1.7,2.4-.4,1.1-.5,2.4-.5,4v1.1c0,1.6.2,2.9.5,4,.3,1.1.9,1.9,1.7,2.4.8.5,1.9.8,3.2.8ZM1055.3,94.6c-2.8,0-5.1-.5-7-1.4-1.9-1-3.3-2.4-4.3-4.4-1-2-1.4-4.4-1.4-7.5s.5-5.5,1.4-7.5c1-2,2.4-3.4,4.2-4.3,1.9-1,4.2-1.4,6.9-1.4s4.7.5,6.5,1.4c1.8.9,3.1,2.3,4,4.2.9,1.9,1.3,4.4,1.3,7.4v1.7h-17.7c0,1.5.3,2.7.7,3.8.4,1,1.1,1.8,1.9,2.3.9.5,2,.7,3.4.7s1.5,0,2.1-.3c.6-.2,1.2-.5,1.6-.9.5-.4.8-.9,1.1-1.4.3-.6.4-1.2.4-2h6.5c0,1.6-.3,3-.9,4.2-.6,1.2-1.4,2.2-2.4,3-1,.8-2.3,1.4-3.7,1.8-1.4.4-3,.6-4.7.6ZM1049.4,78.6h10.7c0-1-.1-1.8-.4-2.5-.2-.7-.5-1.3-1-1.7-.4-.4-.9-.8-1.5-1-.6-.2-1.2-.3-2-.3-1.2,0-2.2.2-3.1.6-.8.4-1.4,1-1.9,1.8-.4.8-.7,1.8-.9,3.1ZM1071.9,94v-25.3h5.5l.5,4h.3c.3-.8.7-1.6,1.2-2.3.5-.7,1.2-1.3,1.9-1.7.8-.4,1.7-.6,2.7-.6s1,0,1.5.2c.4,0,.8.2,1,.3v6.1h-2.1c-1,0-1.9.1-2.7.4-.7.3-1.4.7-1.9,1.3-.5.6-.9,1.3-1.2,2.1-.2.8-.3,1.8-.3,2.9v12.7h-6.7ZM1096.4,94.6c-.8,0-1.7,0-2.7-.3-.9-.2-1.8-.5-2.7-1-.8-.5-1.5-1.2-2.1-2.2-.5-1-.8-2.2-.8-3.7s.4-3.2,1.2-4.4c.8-1.2,1.9-2.1,3.3-2.7,1.4-.7,3.2-1.1,5.2-1.4,2-.3,4.2-.4,6.6-.4v-1.9c0-.7-.1-1.4-.4-1.9-.2-.5-.7-1-1.3-1.3-.6-.3-1.4-.5-2.5-.5s-1.9.1-2.6.4c-.6.3-1.1.6-1.4,1-.3.4-.4.8-.4,1.3v.6h-6.5c0-.2,0-.3,0-.4v-.6c0-1.5.4-2.7,1.3-3.8.9-1.1,2.2-1.9,3.8-2.5,1.6-.6,3.5-.9,5.7-.9s4.3.3,5.9.9c1.6.6,2.8,1.5,3.7,2.7.9,1.2,1.3,2.7,1.3,4.5v11.5c0,.6.2,1,.5,1.3.4.3.7.4,1.2.4h1.6v4.4c-.3.2-.8.3-1.5.5-.7.2-1.5.3-2.4.3s-1.8-.1-2.5-.4c-.7-.3-1.3-.6-1.8-1.1-.5-.5-.8-1.1-1-1.8h-.3c-.6.7-1.2,1.3-2,1.8-.8.5-1.7.9-2.8,1.2-1,.3-2.2.4-3.6.4ZM1098.7,89.5c.9,0,1.7-.1,2.4-.4.7-.3,1.3-.7,1.8-1.1.5-.5.8-1.1,1.1-1.7.3-.7.4-1.4.4-2.2v-1.4c-1.8,0-3.4.1-4.8.4-1.4.2-2.5.6-3.4,1.2-.8.6-1.2,1.4-1.2,2.4s.2,1.1.4,1.5c.3.4.7.7,1.2,1,.6.2,1.2.3,2,.3ZM1117.7,94v-34.8h6.7v34.8h-6.7ZM689.2,152v-33.1h26.4v5.9h-19.2v7.4h17v5.8h-17v8h19.5v5.9h-26.7ZM721.5,152v-34.9h6.7v20.1l8.9-10.6h7.9l-8.7,9.9,9.1,15.4h-7.7l-5.8-10.7-3.7,3.6v7.1h-6.7ZM759,152.6c-2.8,0-5.1-.5-7-1.4-1.9-1-3.4-2.4-4.4-4.4-1-2-1.5-4.5-1.5-7.5s.5-5.5,1.5-7.5c1-2,2.5-3.4,4.4-4.3,1.9-1,4.3-1.4,7-1.4s5.2.5,7.1,1.4c1.9.9,3.4,2.4,4.4,4.3,1,1.9,1.5,4.4,1.5,7.5s-.5,5.5-1.5,7.5c-1,2-2.5,3.4-4.4,4.4-1.9.9-4.3,1.4-7.1,1.4ZM759,147.4c1.5,0,2.7-.3,3.5-.8.9-.5,1.6-1.4,2-2.5.4-1.1.6-2.5.6-4.1v-1.2c0-1.6-.2-3-.6-4.1-.4-1.1-1.1-2-2-2.5-.9-.6-2-.9-3.5-.9s-2.6.3-3.5.9c-.9.5-1.5,1.4-1.9,2.5-.4,1.1-.6,2.5-.6,4.1v1.2c0,1.6.2,3,.6,4.1.4,1.1,1.1,2,1.9,2.5.9.5,2.1.8,3.5.8ZM787.1,152.6c-1.8,0-3.4-.2-4.8-.6-1.4-.4-2.6-.9-3.6-1.6-1-.7-1.8-1.5-2.3-2.5-.5-1-.8-2.1-.8-3.3v-.4c0-.1,0-.2,0-.3h6.5v.4c0,.8.3,1.5.8,2,.5.5,1.1.8,1.9,1.1.8.2,1.6.3,2.5.3s1.5,0,2.2-.2c.7-.2,1.3-.4,1.8-.8.5-.4.8-.9.8-1.5s-.3-1.4-1-1.8c-.6-.4-1.4-.8-2.5-1-1-.3-2.1-.5-3.3-.9-1.1-.3-2.2-.5-3.3-.9-1.1-.4-2.1-.8-3-1.3-.9-.5-1.6-1.3-2.1-2.1-.5-.9-.8-2-.8-3.4s.3-2.5.9-3.4c.6-1,1.4-1.8,2.4-2.5,1-.6,2.2-1.1,3.6-1.4,1.4-.3,2.9-.5,4.4-.5s2.9.2,4.1.5c1.3.3,2.4.7,3.4,1.3,1,.6,1.7,1.3,2.3,2.2.5.9.8,1.8.8,2.9v.6c0,.2,0,.3,0,.4h-6.4v-.4c0-.6-.2-1.1-.5-1.4-.4-.4-.9-.7-1.5-1-.6-.2-1.4-.3-2.4-.3s-1.2,0-1.8.1c-.5,0-1,.2-1.4.4-.4.2-.7.4-.9.7-.2.3-.3.6-.3,1,0,.5.2,1,.7,1.3.5.3,1.1.6,1.9.8.8.2,1.6.5,2.6.7,1.2.3,2.4.6,3.6,1,1.3.3,2.5.7,3.6,1.2,1.1.5,2,1.3,2.7,2.2.7.9,1,2.2,1,3.8s-.3,2.8-.9,3.9c-.6,1.1-1.4,1.9-2.5,2.6-1.1.6-2.3,1.1-3.7,1.4-1.4.3-2.9.4-4.6.4ZM803.6,122.9v-5.8h6.7v5.8h-6.7ZM803.6,152v-25.3h6.7v25.3h-6.7ZM826.8,152.6c-1.8,0-3.4-.2-4.8-.6-1.4-.4-2.6-.9-3.6-1.6-1-.7-1.8-1.5-2.3-2.5-.5-1-.8-2.1-.8-3.3v-.4c0-.1,0-.2,0-.3h6.5v.4c0,.8.3,1.5.8,2,.5.5,1.1.8,1.9,1.1.8.2,1.6.3,2.5.3s1.5,0,2.2-.2c.7-.2,1.3-.4,1.8-.8.5-.4.8-.9.8-1.5s-.3-1.4-1-1.8c-.6-.4-1.4-.8-2.5-1-1-.3-2.1-.5-3.3-.9-1.1-.3-2.2-.5-3.3-.9-1.1-.4-2.1-.8-3-1.3-.9-.5-1.6-1.3-2.1-2.1-.5-.9-.8-2-.8-3.4s.3-2.5.9-3.4c.6-1,1.4-1.8,2.4-2.5,1-.6,2.2-1.1,3.6-1.4,1.4-.3,2.9-.5,4.4-.5s2.9.2,4.1.5c1.3.3,2.4.7,3.4,1.3,1,.6,1.7,1.3,2.3,2.2.5.9.8,1.8.8,2.9v.6c0,.2,0,.3,0,.4h-6.4v-.4c0-.6-.2-1.1-.5-1.4-.4-.4-.9-.7-1.5-1-.6-.2-1.4-.3-2.4-.3s-1.2,0-1.8.1c-.5,0-1,.2-1.3.4-.4.2-.7.4-.9.7-.2.3-.3.6-.3,1,0,.5.2,1,.7,1.3.5.3,1.1.6,1.9.8.8.2,1.6.5,2.6.7,1.2.3,2.4.6,3.6,1,1.3.3,2.5.7,3.6,1.2,1.1.5,2,1.3,2.7,2.2.7.9,1,2.2,1,3.8s-.3,2.8-.9,3.9c-.6,1.1-1.4,1.9-2.5,2.6-1.1.6-2.3,1.1-3.7,1.4-1.4.3-2.9.4-4.6.4ZM850.8,152.6c-1.6,0-2.9-.3-3.9-.9-1-.6-1.7-1.3-2.2-2.3-.5-1-.7-2.1-.7-3.3v-14.3h-3.1v-5.2h3.4l1.3-7.2h5.2v7.2h4.6v5.2h-4.6v13.2c0,.8.2,1.4.5,1.8.4.4.9.6,1.7.6h2.4v4.4c-.4.1-.8.2-1.4.3-.5.1-1.1.2-1.6.3-.6,0-1.1.1-1.6.1ZM871.3,152.6c-2.8,0-5.1-.5-7-1.4-1.9-1-3.3-2.4-4.3-4.4-1-2-1.4-4.4-1.4-7.5s.5-5.5,1.4-7.5c1-2,2.4-3.4,4.2-4.3,1.9-1,4.2-1.4,6.9-1.4s4.7.5,6.5,1.4c1.8.9,3.1,2.3,4,4.2.9,1.9,1.3,4.4,1.3,7.4v1.7h-17.7c0,1.5.3,2.7.7,3.8.4,1,1,1.8,1.9,2.3.9.5,2,.7,3.4.7s1.5,0,2.1-.3c.6-.2,1.2-.5,1.6-.9.5-.4.8-.9,1.1-1.4.3-.6.4-1.2.4-2h6.6c0,1.6-.3,3-.9,4.2-.6,1.2-1.4,2.2-2.4,3-1,.8-2.3,1.4-3.7,1.8-1.4.4-3,.6-4.7.6ZM865.4,136.6h10.7c0-1-.1-1.8-.4-2.5-.2-.7-.5-1.3-1-1.7-.4-.4-.9-.8-1.5-1-.6-.2-1.2-.3-2-.3-1.2,0-2.2.2-3.1.6-.8.4-1.4,1-1.9,1.8-.4.8-.7,1.8-.9,3.1ZM887.9,152v-25.3h5.5l.5,3.5h.3c.5-.8,1.2-1.6,1.9-2.2.8-.6,1.6-1.1,2.6-1.4,1-.3,2-.5,3.1-.5,1.6,0,3,.3,4.1,1,1.2.6,2.1,1.7,2.7,3.1h.3c.5-.8,1.2-1.6,2-2.2.8-.6,1.7-1.1,2.7-1.4,1-.3,2.1-.5,3.2-.5,1.6,0,3,.3,4.1.9,1.2.6,2.1,1.5,2.8,2.8.7,1.3,1,3,1,5v17.2h-6.7v-16c0-.8,0-1.5-.3-2-.2-.6-.4-1-.7-1.3-.3-.4-.7-.6-1.2-.8-.5-.2-1-.2-1.5-.2-.9,0-1.7.2-2.4.7-.7.5-1.3,1.1-1.7,2-.4.8-.6,1.8-.6,2.9v14.8h-6.7v-16c0-.8,0-1.5-.3-2-.2-.6-.4-1-.7-1.3-.3-.4-.7-.6-1.2-.8-.5-.2-1-.2-1.5-.2-.9,0-1.7.2-2.4.7-.7.5-1.3,1.1-1.7,2-.4.8-.6,1.8-.6,2.9v14.8h-6.7ZM940.8,152v-33.1h13.5c3.4,0,6.4.6,8.8,1.8,2.4,1.2,4.3,3,5.5,5.4,1.3,2.4,2,5.5,2,9.3s-.7,6.9-2,9.3c-1.3,2.4-3.1,4.3-5.5,5.4-2.4,1.2-5.3,1.8-8.8,1.8h-13.5ZM948,146.1h6.3c1.4,0,2.7-.2,3.9-.6,1.1-.4,2.1-1,2.8-1.8.7-.8,1.3-1.9,1.7-3.1.4-1.3.6-2.7.6-4.3v-1.4c0-1.6-.2-3.1-.6-4.3-.4-1.3-.9-2.3-1.7-3.1-.7-.8-1.7-1.5-2.8-1.9-1.1-.5-2.4-.7-3.9-.7h-6.3v21.3ZM975.9,122.9v-5.8h6.7v5.8h-6.7ZM975.9,152v-25.3h6.7v25.3h-6.7ZM992.9,161.1c-1.1,0-2.2-.2-3.2-.7-1-.4-1.8-1.1-2.4-2-.6-.9-.9-2-.9-3.2s.4-2.5,1.2-3.4c.8-.9,1.8-1.5,2.8-1.9-.7-.4-1.3-1-1.8-1.6-.5-.7-.7-1.5-.7-2.4s.5-2.3,1.3-3c.9-.8,2-1.3,3.2-1.5-1.2-.7-2.1-1.7-2.8-2.8-.6-1.2-1-2.4-1-3.9s.4-3.4,1.3-4.6c.9-1.3,2.2-2.2,4-2.8,1.7-.7,3.8-1,6.1-1s1.8,0,2.6.1c.8,0,1.6.3,2.3.5,1.2-.7,2-1.5,2.4-2.3.5-.9.7-1.6.7-2.1h6.2c0,1.2-.2,2.2-.7,3.1-.4.9-1,1.6-1.8,2.2-.8.5-1.8.9-2.9,1.2.8.7,1.5,1.6,1.9,2.6s.7,2.1.7,3.2c0,1.8-.4,3.3-1.3,4.6-.9,1.3-2.1,2.2-3.7,2.9-1.6.7-3.5,1-5.7,1h-3.9c-.8,0-1.3.1-1.7.4-.4.3-.6.6-.6,1.2s.2.8.5,1.1c.4.3.9.4,1.7.4h10.6c2.1,0,3.8.7,5.1,2,1.3,1.3,1.9,2.9,1.9,5s-.4,2.9-1.2,4.1c-.8,1.2-1.9,2.1-3.3,2.8-1.4.7-3,1-4.9,1h-12ZM995.7,156.6h8.9c.6,0,1.1-.1,1.5-.3.5-.2.8-.5,1.1-.9.3-.4.4-.8.4-1.3,0-.8-.3-1.5-.8-1.9-.5-.4-1.2-.6-1.9-.6h-9.2c-.8,0-1.4.2-1.9.7-.5.5-.7,1-.7,1.8s.2,1.3.7,1.8c.5.5,1.2.7,1.9.7ZM1000.1,138.7c1.6,0,2.8-.4,3.6-1.1.8-.7,1.3-1.8,1.3-3.1s-.4-2.4-1.3-3.1c-.8-.7-2-1.1-3.6-1.1s-2.7.4-3.6,1.1c-.8.7-1.2,1.7-1.2,3.1s.2,1.6.5,2.3c.4.6.9,1.1,1.6,1.4.7.3,1.6.5,2.7.5ZM1018,122.9v-5.8h6.7v5.8h-6.7ZM1018,152v-25.3h6.7v25.3h-6.7ZM1038.4,152.6c-1.6,0-2.9-.3-3.9-.9-1-.6-1.7-1.3-2.2-2.3-.5-1-.7-2.1-.7-3.3v-14.3h-3.1v-5.2h3.4l1.2-7.2h5.2v7.2h4.6v5.2h-4.6v13.2c0,.8.2,1.4.5,1.8.3.4.9.6,1.7.6h2.4v4.4c-.4.1-.8.2-1.3.3-.5.1-1.1.2-1.6.3-.6,0-1.1.1-1.6.1ZM1054,152.6c-.8,0-1.7,0-2.7-.3-.9-.2-1.8-.5-2.6-1-.8-.5-1.5-1.2-2.1-2.2-.5-1-.8-2.2-.8-3.7s.4-3.2,1.2-4.4c.8-1.2,1.9-2.1,3.3-2.7,1.4-.7,3.2-1.1,5.2-1.4,2-.3,4.2-.4,6.6-.4v-1.9c0-.7-.1-1.4-.4-1.9-.2-.5-.7-1-1.3-1.3-.6-.3-1.4-.5-2.5-.5s-1.9.1-2.6.4c-.6.3-1.1.6-1.4,1-.2.4-.4.8-.4,1.3v.6h-6.5c0-.2,0-.3,0-.4v-.6c0-1.5.4-2.7,1.3-3.8.9-1.1,2.2-1.9,3.8-2.5,1.6-.6,3.5-.9,5.7-.9s4.3.3,5.9.9c1.6.6,2.8,1.5,3.7,2.7.9,1.2,1.3,2.7,1.3,4.5v11.5c0,.6.2,1,.5,1.3.3.3.7.4,1.2.4h1.6v4.4c-.3.2-.8.3-1.5.5-.7.2-1.5.3-2.4.3s-1.8-.1-2.5-.4c-.7-.3-1.3-.6-1.8-1.1-.5-.5-.8-1.1-1-1.8h-.3c-.6.7-1.2,1.3-2,1.8-.8.5-1.7.9-2.7,1.2-1,.3-2.2.4-3.6.4ZM1056.3,147.5c.9,0,1.7-.1,2.4-.4.7-.3,1.3-.7,1.8-1.1.5-.5.8-1.1,1.1-1.7.3-.7.4-1.4.4-2.2v-1.4c-1.8,0-3.4.1-4.8.4-1.4.2-2.5.6-3.4,1.2-.8.6-1.2,1.4-1.2,2.4s.2,1.1.4,1.5c.3.4.7.7,1.2,1,.6.2,1.2.3,2,.3ZM1075.3,152v-34.8h6.7v34.8h-6.7Z"/>
        <path class="cls-8" d="M566.1,192.5l-33.6-49.3c-4.3-6.2-13.6-6.1-17.9,0-1.2,1.8-2,3.9-1.9,6.1,1,14.1.9,43.6,37.2,43.6l16.2-.4h0Z"/>
        <path class="cls-6" d="M534.3,190.6s-17.3-6.6-19.4-32l-3.5-66.6s-2.4-14.6-18.7-18.2c-4.9-1.1-10.1-.9-14.8,1.1-4.9,2.1-10.4,6.5-11.9,15.9-.2,1.3-.3,2.6-.3,3.9-.3,13.1,1.9,77.3,68.6,95.9Z"/>
        <path class="cls-4" d="M474.3,70.9l60-3.4c7.6-.5,12.3-8.4,9.1-15.1-1-1.9-2.4-3.7-4.4-4.6-13-6.3-36.8-26-57.4,9.4l-7.2,13.7Z"/>
        <path class="cls-8" d="M488.6,70.1l47.9-2.7c6.1-.4,9.8-8,7.1-14.6-.8-1.9-2-3.6-3.6-4.6-10.4-6.2-29.6-25.7-45.7,8.6l-5.6,13.3Z"/>
        <path class="cls-3" d="M490.7,44.8s14.3-11.6,38.1-1.3l61.4,29.1s14.3,5,25.4-7.3c3.4-3.7,5.7-8.3,6.2-13.2.5-5.2-.8-12-8.5-17.8-1.1-.8-2.2-1.5-3.3-2.1-11.6-6.5-70.2-35.5-119.2,12.6h0Z"/>
        <path class="cls-8" d="M625.6,54.1l-26.4,52.8c-3.4,6.7,1.3,14.6,8.9,15.2,2.2.2,4.5-.3,6.3-1.5,12-7.9,42-17.9,20.3-53.3l-9.2-13.1h0Z"/>
        <path class="cls-2" d="M641.2,81.1s3.2,17.9-17.9,33l-56.4,37.7s-11.5,9.7-6.2,25.1c1.6,4.7,4.5,8.9,8.6,11.7,4.4,3,11.1,5.3,20.1,1.6,1.2-.5,2.4-1.1,3.5-1.8,11.6-6.6,66.6-42,48.3-107.4h0Z"/>
      </g>
    </g>
  </g>
</svg>