<?xml version="1.0" encoding="UTF-8" standalone="no"?>
<!DOCTYPE svg PUBLIC "-//W3C//DTD SVG 1.1//EN" "http://www.w3.org/Graphics/SVG/1.1/DTD/svg11.dtd">
<svg width="100%" height="100%" viewBox="0 0 1134 213" version="1.1" xmlns="http://www.w3.org/2000/svg" xmlns:xlink="http://www.w3.org/1999/xlink" xml:space="preserve" xmlns:serif="http://www.serif.com/" style="fill-rule:evenodd;clip-rule:evenodd;">
    <g>
        <g id="Layer_1">
            <g>
                <path d="M34,173.6L17.9,190.9L17.9,173.6L9.7,173.6L9.7,211.5L17.9,211.5L17.9,200.2L44.2,173.6L34,173.6ZM32.1,192.7L26.3,198.5L34.6,211.6L44.4,211.6L32.1,192.8L32.1,192.7Z" style="fill:white;fill-rule:nonzero;"/>
                <path d="M91.4,181.5C89.9,178.6 87.6,176.5 84.7,175C81.8,173.6 78.3,172.9 74.2,172.9C70.1,172.9 66.7,173.6 63.8,175C60.9,176.4 58.7,178.6 57.1,181.5C55.5,184.4 54.8,188.1 54.8,192.5C54.8,196.9 55.6,200.5 57.1,203.4C58.6,206.3 60.9,208.5 63.8,209.9C66.7,211.3 70.2,212.1 74.2,212.1C78.2,212.1 81.8,211.4 84.7,209.9C87.6,208.5 89.8,206.3 91.4,203.4C93,200.5 93.7,196.8 93.7,192.5C93.7,188.2 92.9,184.4 91.4,181.5ZM85.3,193.4C85.3,195.3 85.1,197 84.6,198.5C84.1,200 83.4,201.3 82.5,202.3C81.6,203.3 80.4,204.1 79.1,204.6C77.7,205.1 76.1,205.4 74.4,205.4C72.7,205.4 71.1,205.1 69.7,204.6C68.3,204.1 67.2,203.3 66.3,202.3C65.4,201.3 64.7,200 64.2,198.5C63.7,197 63.5,195.3 63.5,193.4L63.5,191.7C63.5,189.7 63.7,188 64.2,186.5C64.7,185 65.3,183.7 66.3,182.7C67.2,181.7 68.4,180.9 69.7,180.4C71.1,179.9 72.6,179.6 74.4,179.6C76.2,179.6 77.8,179.9 79.1,180.4C80.5,180.9 81.6,181.7 82.5,182.7C83.4,183.7 84.1,185 84.6,186.5C85.1,188 85.3,189.7 85.3,191.7L85.3,193.4Z" style="fill:white;fill-rule:nonzero;"/>
                <path d="M137.9,173.6L132.5,192.9C132.2,193.8 132,194.8 131.8,195.8C131.6,196.8 131.4,197.7 131.2,198.6C131,199.5 130.9,200.2 130.8,200.8L130.4,200.8C130.2,200.1 130.1,199.2 129.8,198.3C129.6,197.4 129.3,196.4 129.1,195.4C128.9,194.4 128.7,193.6 128.4,192.9L123,173.5L110.4,173.5L110.4,211.4L118.2,211.4L118.2,189.4C118.2,188 118.2,186.5 118.1,185.1C118.1,183.7 118.1,182.5 118,181.5L118.4,181.5C118.6,182.3 118.9,183.3 119.1,184.4C119.3,185.5 119.6,186.6 119.9,187.7C120.2,188.8 120.4,189.7 120.6,190.5L126.6,211.4L133.8,211.4L139.7,190.4C140,189.5 140.2,188.5 140.5,187.3C140.8,186.1 141.1,184.9 141.4,183.8C141.7,182.7 141.8,182 141.9,181.6L142.4,181.6C142.4,182 142.4,182.8 142.3,184C142.3,185.2 142.3,186.7 142.2,188.4L142.2,211.4L150.3,211.4L150.3,173.5L138,173.5L137.9,173.6Z" style="fill:white;fill-rule:nonzero;"/>
                <path d="M200.5,181.9C199,179.1 196.9,177 194.1,175.7C191.3,174.3 188,173.7 184,173.7L168.5,173.7L168.5,200.5L176.7,200.5L176.7,180.4L183.9,180.4C185.6,180.4 187,180.6 188.3,181.1C189.6,181.6 190.7,182.3 191.5,183.3C192.3,184.2 193,185.4 193.4,186.8C193.9,188.2 194.1,189.9 194.1,191.7L194.1,193.4C194.1,195.3 193.9,196.9 193.4,198.3C193,199.7 192.3,200.9 191.5,201.8C190.7,202.7 189.6,203.4 188.3,203.9C187,204.4 185.5,204.6 183.9,204.6L168.5,204.6L168.5,211.4L184,211.4C188,211.4 191.3,210.7 194.1,209.3C196.9,207.9 199,205.9 200.5,203C202,200.2 202.8,196.6 202.8,192.3C202.8,188 202,184.4 200.5,181.6" style="fill:white;fill-rule:nonzero;"/>
                <rect x="219.5" y="173.6" width="8.2" height="37.9" style="fill:white;fill-rule:nonzero;"/>
                <path d="M262.9,197.3L274.2,197.3L274.2,197.7C274.2,199.4 273.8,200.7 272.9,201.9C272,203 270.8,203.9 269.3,204.5C267.8,205.1 266,205.4 264,205.4C262,205.4 259.6,205 258,204.1C256.4,203.3 255.1,201.9 254.3,200.2C253.5,198.4 253.1,196.1 253.1,193.4L253.1,191.7C253.1,189.7 253.3,188 253.8,186.4C254.3,184.9 255,183.6 255.9,182.6C256.8,181.6 258,180.8 259.5,180.3C260.9,179.8 262.6,179.6 264.5,179.6C266.4,179.6 267,179.8 268.1,180.1C269.2,180.4 270.3,180.8 271.1,181.4C271.9,182 272.7,182.7 273.2,183.6C273.7,184.5 273.9,185.5 273.9,186.6L282.2,186.6C282.2,184.2 281.7,182.2 280.8,180.5C279.9,178.8 278.6,177.4 276.9,176.2C275.2,175.1 273.3,174.2 271.1,173.6C268.9,173 266.6,172.8 264.1,172.8C260,172.8 256.4,173.5 253.5,174.9C250.5,176.3 248.3,178.5 246.8,181.4C245.2,184.3 244.5,188 244.5,192.4C244.5,199.1 246.1,204 249.3,207.2C252.5,210.4 257.1,212 263.1,212C269.1,212 266.8,211.8 268.3,211.5C269.8,211.1 271.3,210.6 272.5,209.9C273.7,209.2 275,208.3 276.1,207.2L276.8,211.3L282.2,211.3L282.2,190.8L262.7,190.8L262.7,197.1L262.9,197.3Z" style="fill:white;fill-rule:nonzero;"/>
                <rect x="300.4" y="173.6" width="8.2" height="37.9" style="fill:white;fill-rule:nonzero;"/>
                <path d="M216.1,105.2L198.4,105.2L198.4,122.9C198.4,125.2 200.3,127.1 202.6,127.1L220.3,127.1L220.3,109.4C220.3,107.1 218.4,105.2 216.1,105.2Z" style="fill:rgb(236,188,29);fill-rule:nonzero;"/>
                <path d="M226.9,30.7L207.1,30.7C202.3,30.7 198.4,26.8 198.4,22L198.4,8.8C198.4,4 194.5,0 189.6,0L167.7,0L167.7,21.9C167.7,26.7 171.6,30.7 176.5,30.7L189.7,30.7C194.5,30.7 198.5,34.6 198.5,39.5L198.5,59.3C198.5,64.1 194.6,68 189.8,68L170,68C165.2,68 161.2,71.9 161.2,76.8L161.2,96.5C161.2,101.3 165.1,105.3 170,105.3L198.5,105.3L198.5,76.7C198.5,71.9 202.4,68 207.3,68L227.1,68C231.9,68 235.9,64.1 235.9,59.2L235.9,39.5C235.9,34.7 232,30.7 227.1,30.7" style="fill:rgb(0,173,228);fill-rule:nonzero;"/>
                <path d="M116.2,18.7L98.5,18.7L98.5,36.4C98.5,38.7 100.4,40.6 102.7,40.6L120.4,40.6L120.4,22.9C120.4,20.6 118.5,18.7 116.2,18.7Z" style="fill:rgb(143,24,27);fill-rule:nonzero;"/>
                <path d="M151.2,108.6L133.6,108.6C126.4,108.6 120.5,102.7 120.5,95.4L120.5,80.1C120.5,75.3 124.4,71.4 129.2,71.4L142.4,71.4C147.2,71.4 151.2,67.5 151.2,62.6L151.2,40.7L120.5,40.7L120.5,62.7C120.5,67.5 116.6,71.4 111.8,71.4L92,71.4C87.2,71.4 83.2,75.3 83.2,80.2L83.2,108.7L107.4,108.7C114.6,108.7 120.5,114.6 120.6,121.8L120.6,139.4C120.6,146.7 126.5,152.6 133.8,152.6L164.5,152.6L164.5,121.9C164.5,114.6 158.6,108.7 151.3,108.7" style="fill:rgb(0,109,176);fill-rule:nonzero;"/>
                <path d="M387.3,0L387.3,212.2" style="fill:none;fill-rule:nonzero;stroke:white;stroke-width:3.2px;"/>
                <path d="M689.2,94L689.2,60.9L702.7,60.9C706.1,60.9 709.1,61.5 711.5,62.7C713.9,63.9 715.8,65.7 717,68.1C718.3,70.5 719,73.6 719,77.4C719,81.2 718.3,84.3 717,86.7C715.7,89.1 713.9,91 711.5,92.1C709.1,93.3 706.2,93.9 702.7,93.9L689.2,93.9L689.2,94ZM696.3,88.1L702.6,88.1C704,88.1 705.3,87.9 706.5,87.5C707.6,87.1 708.6,86.5 709.3,85.7C710,84.9 710.6,83.8 711,82.6C711.4,81.3 711.6,79.9 711.6,78.3L711.6,76.9C711.6,75.3 711.4,73.8 711,72.6C710.6,71.3 710.1,70.3 709.3,69.5C708.6,68.7 707.6,68 706.5,67.6C705.4,67.2 704.1,66.9 702.6,66.9L696.3,66.9L696.3,88.2L696.3,88.1ZM724.2,64.9L724.2,59.1L730.9,59.1L730.9,64.9L724.2,64.9ZM724.2,94L724.2,68.7L730.9,68.7L730.9,94L724.2,94ZM737.1,94L737.1,68.7L742.6,68.7L743.1,72.7L743.4,72.7C743.7,71.9 744.1,71.1 744.7,70.4C745.2,69.7 745.9,69.1 746.6,68.7C747.4,68.3 748.3,68.1 749.3,68.1C750.3,68.1 750.3,68.1 750.8,68.3C751.3,68.3 751.6,68.5 751.8,68.6L751.8,74.7L749.7,74.7C748.7,74.7 747.8,74.8 747.1,75.1C746.4,75.4 745.7,75.8 745.2,76.4C744.7,77 744.3,77.7 744,78.5C743.8,79.3 743.7,80.3 743.7,81.4L743.7,94.1L737,94.1L737.1,94ZM766.4,94.6C763.6,94.6 761.3,94.1 759.4,93.2C757.5,92.2 756.1,90.8 755.1,88.8C754.1,86.8 753.7,84.4 753.7,81.3C753.7,78.2 754.2,75.8 755.1,73.8C756.1,71.8 757.5,70.4 759.3,69.5C761.2,68.5 763.5,68.1 766.2,68.1C768.9,68.1 770.9,68.6 772.7,69.5C774.5,70.4 775.8,71.8 776.7,73.7C777.6,75.6 778,78.1 778,81.1L778,82.8L760.3,82.8C760.3,84.3 760.6,85.5 761,86.6C761.4,87.6 762,88.4 762.9,88.9C763.8,89.4 764.9,89.6 766.3,89.6C767.7,89.6 767.8,89.6 768.4,89.3C769,89.1 769.6,88.8 770,88.4C770.5,88 770.8,87.5 771.1,87C771.4,86.4 771.5,85.8 771.5,85L778.1,85C778.1,86.6 777.8,88 777.2,89.2C776.6,90.4 775.8,91.4 774.8,92.2C773.8,93 772.5,93.6 771.1,94C769.7,94.4 768.1,94.6 766.4,94.6ZM760.4,78.6L771.2,78.6C771.2,77.6 771.1,76.8 770.8,76.1C770.6,75.4 770.3,74.8 769.8,74.4C769.4,74 768.9,73.6 768.3,73.4C767.7,73.2 767.1,73.1 766.3,73.1C765.1,73.1 764.1,73.3 763.2,73.7C762.4,74.1 761.8,74.7 761.3,75.5C760.9,76.3 760.6,77.3 760.4,78.6ZM783,94L783,59.1L789.7,59.1L789.7,79.2L798.6,68.6L806.5,68.6L797.8,78.5L806.9,93.9L799.2,93.9L793.4,83.2L789.7,86.8L789.7,93.9L783,93.9L783,94ZM818.1,94.6C816.5,94.6 815.2,94.3 814.2,93.7C813.2,93.1 812.5,92.4 812,91.4C811.5,90.4 811.3,89.3 811.3,88.1L811.3,73.8L808.2,73.8L808.2,68.6L811.6,68.6L812.9,61.4L818.1,61.4L818.1,68.6L822.7,68.6L822.7,73.8L818.1,73.8L818.1,87C818.1,87.8 818.3,88.4 818.6,88.8C819,89.2 819.5,89.4 820.3,89.4L822.7,89.4L822.7,93.8C822.3,93.9 821.9,94 821.4,94.1C820.9,94.2 820.3,94.3 819.8,94.4C819.2,94.4 818.7,94.5 818.2,94.5L818.1,94.6ZM838.7,94.6C835.9,94.6 833.6,94.1 831.7,93.2C829.8,92.2 828.3,90.8 827.3,88.8C826.3,86.8 825.8,84.3 825.8,81.3C825.8,78.3 826.3,75.8 827.3,73.8C828.3,71.8 829.8,70.4 831.7,69.5C833.6,68.5 836,68.1 838.7,68.1C841.4,68.1 843.9,68.6 845.8,69.5C847.7,70.4 849.2,71.9 850.2,73.8C851.2,75.7 851.7,78.2 851.7,81.3C851.7,84.4 851.2,86.8 850.2,88.8C849.2,90.8 847.7,92.2 845.8,93.2C843.9,94.1 841.5,94.6 838.7,94.6ZM838.7,89.4C840.2,89.4 841.4,89.1 842.2,88.6C843.1,88.1 843.8,87.2 844.2,86.1C844.6,85 844.8,83.6 844.8,82L844.8,80.8C844.8,79.2 844.6,77.8 844.2,76.7C843.8,75.6 843.1,74.7 842.2,74.2C841.3,73.6 840.2,73.3 838.7,73.3C837.2,73.3 836.1,73.6 835.2,74.2C834.3,74.7 833.7,75.6 833.3,76.7C832.9,77.8 832.7,79.2 832.7,80.8L832.7,82C832.7,83.6 832.9,85 833.3,86.1C833.7,87.2 834.4,88.1 835.2,88.6C836.1,89.1 837.3,89.4 838.7,89.4ZM856.5,94L856.5,68.7L862,68.7L862.5,72.7L862.8,72.7C863.1,71.9 863.5,71.1 864.1,70.4C864.6,69.7 865.3,69.1 866,68.7C866.8,68.3 867.7,68.1 868.7,68.1C869.7,68.1 869.7,68.1 870.2,68.3C870.7,68.3 871,68.5 871.2,68.6L871.2,74.7L869.1,74.7C868.1,74.7 867.2,74.8 866.4,75.1C865.7,75.4 865,75.8 864.5,76.4C864,77 863.6,77.7 863.3,78.5C863.1,79.3 863,80.3 863,81.4L863,94.1L856.3,94.1L856.5,94ZM881.1,94.6C880.3,94.6 879.4,94.6 878.4,94.3C877.5,94.1 876.6,93.8 875.8,93.3C875,92.8 874.3,92.1 873.7,91.1C873.2,90.1 872.9,88.9 872.9,87.4C872.9,85.9 873.3,84.2 874.1,83C874.9,81.8 876,80.9 877.4,80.3C878.8,79.6 880.6,79.2 882.6,78.9C884.6,78.6 886.8,78.5 889.2,78.5L889.2,76.6C889.2,75.9 889.1,75.2 888.8,74.7C888.6,74.2 888.2,73.7 887.5,73.4C886.9,73.1 886.1,72.9 885,72.9C883.9,72.9 883.1,73 882.4,73.3C881.8,73.6 881.3,73.9 881,74.3C880.7,74.7 880.6,75.1 880.6,75.6L880.6,76.2L874.1,76.2L874.1,75.2C874.1,73.7 874.6,72.5 875.4,71.4C876.3,70.3 877.6,69.5 879.2,68.9C880.8,68.3 882.7,68 884.9,68C887.1,68 889.2,68.3 890.8,68.9C892.4,69.5 893.6,70.4 894.5,71.6C895.4,72.8 895.8,74.3 895.8,76.1L895.8,87.6C895.8,88.2 896,88.6 896.3,88.9C896.7,89.2 897,89.3 897.5,89.3L899.1,89.3L899.1,93.7C898.8,93.9 898.3,94 897.6,94.2C896.9,94.4 896.1,94.5 895.1,94.5C894.1,94.5 893.3,94.4 892.6,94.1C891.9,93.8 891.3,93.5 890.8,93C890.3,92.5 890,91.9 889.8,91.2L889.5,91.2C889,91.9 888.3,92.5 887.5,93C886.7,93.5 885.8,93.9 884.8,94.2C883.8,94.5 882.6,94.6 881.2,94.6L881.1,94.6ZM883.3,89.5C884.2,89.5 885,89.4 885.7,89.1C886.4,88.8 887,88.4 887.5,88C888,87.5 888.4,86.9 888.6,86.3C888.9,85.6 889,84.9 889,84.1L889,82.7C887.2,82.7 885.6,82.8 884.2,83.1C882.8,83.3 881.7,83.7 880.8,84.3C880,84.9 879.6,85.7 879.6,86.7C879.6,87.7 879.7,87.8 880,88.2C880.3,88.6 880.7,88.9 881.3,89.2C881.8,89.4 882.5,89.5 883.3,89.5ZM909.9,94.6C908.3,94.6 907,94.3 906,93.7C905,93.1 904.3,92.4 903.8,91.4C903.4,90.4 903.1,89.3 903.1,88.1L903.1,73.8L900,73.8L900,68.6L903.4,68.6L904.7,61.4L909.9,61.4L909.9,68.6L914.5,68.6L914.5,73.8L909.9,73.8L909.9,87C909.9,87.8 910.1,88.4 910.4,88.8C910.8,89.2 911.3,89.4 912.1,89.4L914.5,89.4L914.5,93.8C914.1,93.9 913.7,94 913.2,94.1C912.7,94.2 912.1,94.3 911.6,94.4C911,94.4 910.5,94.5 910,94.5L909.9,94.6ZM938.8,94.6C936.3,94.6 934.1,94.2 932.3,93.5C930.5,92.7 929.2,91.6 928.2,90.1C927.3,88.6 926.8,86.7 926.8,84.4L926.8,82.9L933.8,82.9L933.8,84.4C933.8,85.9 934.2,87 935,87.7C935.8,88.4 937.1,88.8 938.7,88.8C940.3,88.8 941.5,88.3 942.3,87.3C943.1,86.2 943.5,84.7 943.5,82.8L943.5,61.1L950.7,61.1L950.7,82.8C950.7,85.5 950.2,87.7 949.3,89.5C948.4,91.3 947,92.6 945.2,93.5C943.4,94.4 941.3,94.8 938.7,94.8L938.8,94.6ZM968.8,94.6C966,94.6 963.7,94.1 961.8,93.2C959.9,92.2 958.5,90.8 957.5,88.8C956.5,86.8 956.1,84.4 956.1,81.3C956.1,78.2 956.6,75.8 957.5,73.8C958.5,71.8 959.9,70.4 961.7,69.5C963.6,68.5 965.9,68.1 968.6,68.1C971.3,68.1 973.3,68.6 975.1,69.5C976.9,70.4 978.2,71.8 979.1,73.7C980,75.6 980.4,78.1 980.4,81.1L980.4,82.8L962.7,82.8C962.7,84.3 963,85.5 963.4,86.6C963.8,87.6 964.4,88.4 965.3,88.9C966.2,89.4 967.3,89.6 968.7,89.6C970.1,89.6 970.2,89.6 970.8,89.3C971.4,89.1 972,88.8 972.4,88.4C972.8,88 973.2,87.5 973.5,87C973.8,86.4 973.9,85.8 973.9,85L980.5,85C980.5,86.6 980.2,88 979.6,89.2C979,90.4 978.2,91.4 977.2,92.2C976.2,93 974.9,93.6 973.5,94C972.1,94.4 970.5,94.6 968.8,94.6ZM962.8,78.6L973.6,78.6C973.6,77.6 973.5,76.8 973.2,76.1C973,75.4 972.7,74.8 972.2,74.4C971.8,74 971.3,73.6 970.7,73.4C970.1,73.2 969.5,73.1 968.7,73.1C967.5,73.1 966.5,73.3 965.6,73.7C964.8,74.1 964.2,74.7 963.7,75.5C963.3,76.3 963,77.3 962.8,78.6ZM985.4,94.2L985.4,68.7L990.9,68.7L991.4,72.2L991.7,72.2C992.3,71.4 993,70.6 993.8,70C994.6,69.4 995.6,68.9 996.6,68.6C997.6,68.3 998.8,68.1 1000,68.1C1001.2,68.1 1003.1,68.4 1004.4,69C1005.7,69.6 1006.6,70.6 1007.3,71.9C1008,73.2 1008.4,74.9 1008.4,77.1L1008.4,94.1L1001.7,94.1L1001.7,78.2C1001.7,77.4 1001.7,76.7 1001.4,76.2C1001.2,75.6 1000.9,75.2 1000.5,74.8C1000.1,74.4 999.7,74.1 999.2,74C998.7,73.8 998,73.8 997.4,73.8C996.4,73.8 995.5,74 994.7,74.5C993.9,75 993.3,75.6 992.8,76.5C992.3,77.3 992.1,78.3 992.1,79.4L992.1,94.2L985.4,94.2ZM1023.4,94.6C1021.3,94.6 1019.5,94.1 1018,93.2C1016.5,92.2 1015.3,90.8 1014.5,88.8C1013.7,86.8 1013.2,84.3 1013.2,81.3C1013.2,78.3 1013.6,75.8 1014.5,73.8C1015.4,71.8 1016.5,70.4 1018,69.5C1019.5,68.6 1021.2,68.1 1023.2,68.1C1025.2,68.1 1025.3,68.2 1026.2,68.5C1027.2,68.7 1028,69.1 1028.7,69.6C1029.4,70.1 1030.1,70.7 1030.6,71.5L1030.9,71.5L1030.9,59.2L1037.6,59.2L1037.6,94L1032.1,94L1031.6,90.6L1031.3,90.6C1030.5,91.9 1029.4,93 1028,93.6C1026.7,94.2 1025.1,94.6 1023.5,94.6L1023.4,94.6ZM1025.5,89.1C1026.7,89.1 1027.8,88.8 1028.5,88.2C1029.3,87.6 1029.9,86.8 1030.3,85.7C1030.7,84.6 1030.9,83.3 1030.9,81.8L1030.9,80.9C1030.9,79.8 1030.8,78.7 1030.6,77.8C1030.4,76.9 1030.1,76.1 1029.6,75.5C1029.1,74.9 1028.6,74.4 1027.9,74.1C1027.2,73.7 1026.4,73.6 1025.5,73.6C1024.1,73.6 1023.1,73.9 1022.3,74.4C1021.5,74.9 1020.9,75.7 1020.6,76.8C1020.2,77.9 1020.1,79.2 1020.1,80.8L1020.1,81.9C1020.1,83.5 1020.3,84.8 1020.6,85.9C1020.9,87 1021.5,87.8 1022.3,88.3C1023.1,88.8 1024.2,89.1 1025.5,89.1ZM1055.3,94.6C1052.5,94.6 1050.2,94.1 1048.3,93.2C1046.4,92.2 1045,90.8 1044,88.8C1043,86.8 1042.6,84.4 1042.6,81.3C1042.6,78.2 1043.1,75.8 1044,73.8C1045,71.8 1046.4,70.4 1048.2,69.5C1050.1,68.5 1052.4,68.1 1055.1,68.1C1057.8,68.1 1059.8,68.6 1061.6,69.5C1063.4,70.4 1064.7,71.8 1065.6,73.7C1066.5,75.6 1066.9,78.1 1066.9,81.1L1066.9,82.8L1049.2,82.8C1049.2,84.3 1049.5,85.5 1049.9,86.6C1050.3,87.6 1051,88.4 1051.8,88.9C1052.7,89.4 1053.8,89.6 1055.2,89.6C1056.6,89.6 1056.7,89.6 1057.3,89.3C1057.9,89.1 1058.5,88.8 1058.9,88.4C1059.4,88 1059.7,87.5 1060,87C1060.3,86.4 1060.4,85.8 1060.4,85L1066.9,85C1066.9,86.6 1066.6,88 1066,89.2C1065.4,90.4 1064.6,91.4 1063.6,92.2C1062.6,93 1061.3,93.6 1059.9,94C1058.5,94.4 1056.9,94.6 1055.2,94.6L1055.3,94.6ZM1049.3,78.6L1060.1,78.6C1060.1,77.6 1060,76.8 1059.7,76.1C1059.5,75.4 1059.2,74.8 1058.7,74.4C1058.3,74 1057.8,73.6 1057.2,73.4C1056.6,73.2 1056,73.1 1055.2,73.1C1054,73.1 1053,73.3 1052.1,73.7C1051.3,74.1 1050.7,74.7 1050.2,75.5C1049.8,76.3 1049.5,77.3 1049.3,78.6ZM1071.9,94L1071.9,68.7L1077.4,68.7L1077.9,72.7L1078.2,72.7C1078.5,71.9 1078.9,71.1 1079.4,70.4C1079.9,69.7 1080.6,69.1 1081.3,68.7C1082.1,68.3 1083,68.1 1084,68.1C1085,68.1 1085,68.1 1085.5,68.3C1085.9,68.3 1086.3,68.5 1086.5,68.6L1086.5,74.7L1084.4,74.7C1083.4,74.7 1082.5,74.8 1081.7,75.1C1081,75.4 1080.3,75.8 1079.8,76.4C1079.3,77 1078.9,77.7 1078.6,78.5C1078.4,79.3 1078.3,80.3 1078.3,81.4L1078.3,94.1L1071.6,94.1L1071.9,94ZM1096.4,94.6C1095.6,94.6 1094.7,94.6 1093.7,94.3C1092.8,94.1 1091.9,93.8 1091,93.3C1090.2,92.8 1089.5,92.1 1088.9,91.1C1088.4,90.1 1088.1,88.9 1088.1,87.4C1088.1,85.9 1088.5,84.2 1089.3,83C1090.1,81.8 1091.2,80.9 1092.6,80.3C1094,79.6 1095.8,79.2 1097.8,78.9C1099.8,78.6 1102,78.5 1104.4,78.5L1104.4,76.6C1104.4,75.9 1104.3,75.2 1104,74.7C1103.8,74.2 1103.3,73.7 1102.7,73.4C1102.1,73.1 1101.3,72.9 1100.2,72.9C1099.1,72.9 1098.3,73 1097.6,73.3C1097,73.6 1096.5,73.9 1096.2,74.3C1095.9,74.7 1095.8,75.1 1095.8,75.6L1095.8,76.2L1089.3,76.2L1089.3,75.2C1089.3,73.7 1089.7,72.5 1090.6,71.4C1091.5,70.3 1092.8,69.5 1094.4,68.9C1096,68.3 1097.9,68 1100.1,68C1102.3,68 1104.4,68.3 1106,68.9C1107.6,69.5 1108.8,70.4 1109.7,71.6C1110.6,72.8 1111,74.3 1111,76.1L1111,87.6C1111,88.2 1111.2,88.6 1111.5,88.9C1111.9,89.2 1112.2,89.3 1112.7,89.3L1114.3,89.3L1114.3,93.7C1114,93.9 1113.5,94 1112.8,94.2C1112.1,94.4 1111.3,94.5 1110.4,94.5C1109.5,94.5 1108.6,94.4 1107.9,94.1C1107.2,93.8 1106.6,93.5 1106.1,93C1105.6,92.5 1105.3,91.9 1105.1,91.2L1104.8,91.2C1104.2,91.9 1103.6,92.5 1102.8,93C1102,93.5 1101.1,93.9 1100,94.2C1099,94.5 1097.8,94.6 1096.4,94.6ZM1098.7,89.5C1099.6,89.5 1100.4,89.4 1101.1,89.1C1101.8,88.8 1102.4,88.4 1102.9,88C1103.4,87.5 1103.7,86.9 1104,86.3C1104.3,85.6 1104.4,84.9 1104.4,84.1L1104.4,82.7C1102.6,82.7 1101,82.8 1099.6,83.1C1098.2,83.3 1097.1,83.7 1096.2,84.3C1095.4,84.9 1095,85.7 1095,86.7C1095,87.7 1095.2,87.8 1095.4,88.2C1095.7,88.6 1096.1,88.9 1096.6,89.2C1097.2,89.4 1097.8,89.5 1098.6,89.5L1098.7,89.5ZM1117.7,94L1117.7,59.2L1124.4,59.2L1124.4,94L1117.7,94ZM689.2,152L689.2,118.9L715.6,118.9L715.6,124.8L696.4,124.8L696.4,132.2L713.4,132.2L713.4,138L696.4,138L696.4,146L715.9,146L715.9,151.9L689.2,151.9L689.2,152ZM721.5,152L721.5,117.1L728.2,117.1L728.2,137.2L737.1,126.6L745,126.6L736.3,136.5L745.4,151.9L737.7,151.9L731.9,141.2L728.2,144.8L728.2,151.9L721.5,151.9L721.5,152ZM759,152.6C756.2,152.6 753.9,152.1 752,151.2C750.1,150.2 748.6,148.8 747.6,146.8C746.6,144.8 746.1,142.3 746.1,139.3C746.1,136.3 746.6,133.8 747.6,131.8C748.6,129.8 750.1,128.4 752,127.5C753.9,126.5 756.3,126.1 759,126.1C761.7,126.1 764.2,126.6 766.1,127.5C768,128.4 769.5,129.9 770.5,131.8C771.5,133.7 772,136.2 772,139.3C772,142.4 771.5,144.8 770.5,146.8C769.5,148.8 768,150.2 766.1,151.2C764.2,152.1 761.8,152.6 759,152.6ZM759,147.4C760.5,147.4 761.7,147.1 762.5,146.6C763.4,146.1 764.1,145.2 764.5,144.1C764.9,143 765.1,141.6 765.1,140L765.1,138.8C765.1,137.2 764.9,135.8 764.5,134.7C764.1,133.6 763.4,132.7 762.5,132.2C761.6,131.6 760.5,131.3 759,131.3C757.5,131.3 756.4,131.6 755.5,132.2C754.6,132.7 754,133.6 753.6,134.7C753.2,135.8 753,137.2 753,138.8L753,140C753,141.6 753.2,143 753.6,144.1C754,145.2 754.7,146.1 755.5,146.6C756.4,147.1 757.6,147.4 759,147.4ZM787.1,152.6C785.3,152.6 783.7,152.4 782.3,152C780.9,151.6 779.7,151.1 778.7,150.4C777.7,149.7 776.9,148.9 776.4,147.9C775.9,146.9 775.6,145.8 775.6,144.6L775.6,143.9L782.1,143.9L782.1,144.3C782.1,145.1 782.4,145.8 782.9,146.3C783.4,146.8 784,147.1 784.8,147.4C785.6,147.6 786.4,147.7 787.3,147.7C788.2,147.7 788.8,147.7 789.5,147.5C790.2,147.3 790.8,147.1 791.3,146.7C791.8,146.3 792.1,145.8 792.1,145.2C792.1,144.6 791.8,143.8 791.1,143.4C790.5,143 789.7,142.6 788.6,142.4C787.6,142.1 786.5,141.9 785.3,141.5C784.2,141.2 783.1,141 782,140.6C780.9,140.2 779.9,139.8 779,139.3C778.1,138.8 777.4,138 776.9,137.2C776.4,136.3 776.1,135.2 776.1,133.8C776.1,132.4 776.4,131.3 777,130.4C777.6,129.4 778.4,128.6 779.4,127.9C780.4,127.3 781.6,126.8 783,126.5C784.4,126.2 785.9,126 787.4,126C788.9,126 790.3,126.2 791.5,126.5C792.8,126.8 793.9,127.2 794.9,127.8C795.9,128.4 796.6,129.1 797.2,130C797.7,130.9 798,131.8 798,132.9L798,133.9L791.6,133.9L791.6,133.5C791.6,132.9 791.4,132.4 791.1,132.1C790.7,131.7 790.2,131.4 789.6,131.1C789,130.9 788.2,130.8 787.2,130.8C786.2,130.8 786,130.8 785.4,130.9C784.9,130.9 784.4,131.1 784,131.3C783.6,131.5 783.3,131.7 783.1,132C782.9,132.3 782.8,132.6 782.8,133C782.8,133.5 783,134 783.5,134.3C784,134.6 784.6,134.9 785.4,135.1C786.2,135.3 787,135.6 788,135.8C789.2,136.1 790.4,136.4 791.6,136.8C792.9,137.1 794.1,137.5 795.2,138C796.3,138.5 797.2,139.3 797.9,140.2C798.6,141.1 798.9,142.4 798.9,144C798.9,145.6 798.6,146.8 798,147.9C797.4,149 796.6,149.8 795.5,150.5C794.4,151.1 793.2,151.6 791.8,151.9C790.4,152.2 788.9,152.3 787.2,152.3L787.1,152.6ZM803.6,122.9L803.6,117.1L810.3,117.1L810.3,122.9L803.6,122.9ZM803.6,152L803.6,126.7L810.3,126.7L810.3,152L803.6,152ZM826.8,152.6C825,152.6 823.4,152.4 822,152C820.6,151.6 819.4,151.1 818.4,150.4C817.4,149.7 816.6,148.9 816.1,147.9C815.6,146.9 815.3,145.8 815.3,144.6L815.3,143.9L821.8,143.9L821.8,144.3C821.8,145.1 822.1,145.8 822.6,146.3C823.1,146.8 823.7,147.1 824.5,147.4C825.3,147.6 826.1,147.7 827,147.7C827.9,147.7 828.5,147.7 829.2,147.5C829.9,147.3 830.5,147.1 831,146.7C831.5,146.3 831.8,145.8 831.8,145.2C831.8,144.6 831.5,143.8 830.8,143.4C830.2,143 829.4,142.6 828.3,142.4C827.3,142.1 826.2,141.9 825,141.5C823.9,141.2 822.8,141 821.7,140.6C820.6,140.2 819.6,139.8 818.7,139.3C817.8,138.8 817.1,138 816.6,137.2C816.1,136.3 815.8,135.2 815.8,133.8C815.8,132.4 816.1,131.3 816.7,130.4C817.3,129.4 818.1,128.6 819.1,127.9C820.1,127.3 821.3,126.8 822.7,126.5C824.1,126.2 825.6,126 827.1,126C828.6,126 830,126.2 831.2,126.5C832.5,126.8 833.6,127.2 834.6,127.8C835.6,128.4 836.3,129.1 836.9,130C837.4,130.9 837.7,131.8 837.7,132.9L837.7,133.9L831.3,133.9L831.3,133.5C831.3,132.9 831.1,132.4 830.8,132.1C830.4,131.7 829.9,131.4 829.3,131.1C828.7,130.9 827.9,130.8 826.9,130.8C825.9,130.8 825.7,130.8 825.1,130.9C824.6,130.9 824.1,131.1 823.8,131.3C823.4,131.5 823.1,131.7 822.9,132C822.7,132.3 822.6,132.6 822.6,133C822.6,133.5 822.8,134 823.3,134.3C823.8,134.6 824.4,134.9 825.2,135.1C826,135.3 826.8,135.6 827.8,135.8C829,136.1 830.2,136.4 831.4,136.8C832.7,137.1 833.9,137.5 835,138C836.1,138.5 837,139.3 837.7,140.2C838.4,141.1 838.7,142.4 838.7,144C838.7,145.6 838.4,146.8 837.8,147.9C837.2,149 836.4,149.8 835.3,150.5C834.2,151.1 833,151.6 831.6,151.9C830.2,152.2 828.7,152.3 827,152.3L826.8,152.6ZM850.8,152.6C849.2,152.6 847.9,152.3 846.9,151.7C845.9,151.1 845.2,150.4 844.7,149.4C844.2,148.4 844,147.3 844,146.1L844,131.8L840.9,131.8L840.9,126.6L844.3,126.6L845.6,119.4L850.8,119.4L850.8,126.6L855.4,126.6L855.4,131.8L850.8,131.8L850.8,145C850.8,145.8 851,146.4 851.3,146.8C851.7,147.2 852.2,147.4 853,147.4L855.4,147.4L855.4,151.8C855,151.9 854.6,152 854,152.1C853.5,152.2 852.9,152.3 852.4,152.4C851.8,152.4 851.3,152.5 850.8,152.5L850.8,152.6ZM871.3,152.6C868.5,152.6 866.2,152.1 864.3,151.2C862.4,150.2 861,148.8 860,146.8C859,144.8 858.6,142.4 858.6,139.3C858.6,136.2 859.1,133.8 860,131.8C861,129.8 862.4,128.4 864.2,127.5C866.1,126.5 868.4,126.1 871.1,126.1C873.8,126.1 875.8,126.6 877.6,127.5C879.4,128.4 880.7,129.8 881.6,131.7C882.5,133.6 882.9,136.1 882.9,139.1L882.9,140.8L865.2,140.8C865.2,142.3 865.5,143.5 865.9,144.6C866.3,145.6 866.9,146.4 867.8,146.9C868.7,147.4 869.8,147.6 871.2,147.6C872.6,147.6 872.7,147.6 873.3,147.3C873.9,147.1 874.5,146.8 874.9,146.4C875.4,146 875.7,145.5 876,145C876.3,144.4 876.4,143.8 876.4,143L883,143C883,144.6 882.7,146 882.1,147.2C881.5,148.4 880.7,149.4 879.7,150.2C878.7,151 877.4,151.6 876,152C874.6,152.4 873,152.6 871.3,152.6ZM865.3,136.6L876.1,136.6C876.1,135.6 876,134.8 875.7,134.1C875.5,133.4 875.2,132.8 874.7,132.4C874.3,132 873.8,131.6 873.2,131.4C872.6,131.2 872,131.1 871.2,131.1C870,131.1 869,131.3 868.1,131.7C867.3,132.1 866.7,132.7 866.2,133.5C865.8,134.3 865.5,135.3 865.3,136.6ZM887.9,152L887.9,126.7L893.4,126.7L893.9,130.2L894.2,130.2C894.7,129.4 895.4,128.6 896.1,128C896.9,127.4 897.7,126.9 898.7,126.6C899.7,126.3 900.7,126.1 901.8,126.1C903.4,126.1 904.8,126.4 905.9,127.1C907.1,127.7 908,128.8 908.6,130.2L908.9,130.2C909.4,129.4 910.1,128.6 910.9,128C911.7,127.4 912.6,126.9 913.6,126.6C914.6,126.3 915.7,126.1 916.8,126.1C918.4,126.1 919.8,126.4 920.9,127C922.1,127.6 923,128.5 923.7,129.8C924.4,131.1 924.7,132.8 924.7,134.8L924.7,152L918,152L918,136C918,135.2 918,134.5 917.7,134C917.5,133.4 917.3,133 917,132.7C916.7,132.3 916.3,132.1 915.8,131.9C915.3,131.7 914.8,131.7 914.3,131.7C913.4,131.7 912.6,131.9 911.9,132.4C911.2,132.9 910.6,133.5 910.2,134.4C909.8,135.2 909.6,136.2 909.6,137.3L909.6,152.1L902.9,152.1L902.9,136.1C902.9,135.3 902.9,134.6 902.6,134.1C902.4,133.5 902.2,133.1 901.9,132.8C901.6,132.4 901.2,132.2 900.7,132C900.2,131.8 899.7,131.8 899.2,131.8C898.3,131.8 897.5,132 896.8,132.5C896.1,133 895.5,133.6 895.1,134.5C894.7,135.3 894.5,136.3 894.5,137.4L894.5,152.2L887.8,152.2L887.9,152ZM940.8,152L940.8,118.9L954.3,118.9C957.7,118.9 960.7,119.5 963.1,120.7C965.5,121.9 967.4,123.7 968.6,126.1C969.9,128.5 970.6,131.6 970.6,135.4C970.6,139.2 969.9,142.3 968.6,144.7C967.3,147.1 965.5,149 963.1,150.1C960.7,151.3 957.8,151.9 954.3,151.9L940.8,151.9L940.8,152ZM948,146.1L954.3,146.1C955.7,146.1 957,145.9 958.2,145.5C959.3,145.1 960.3,144.5 961,143.7C961.7,142.9 962.3,141.8 962.7,140.6C963.1,139.3 963.3,137.9 963.3,136.3L963.3,134.9C963.3,133.3 963.1,131.8 962.7,130.6C962.3,129.3 961.8,128.3 961,127.5C960.3,126.7 959.3,126 958.2,125.6C957.1,125.1 955.8,124.9 954.3,124.9L948,124.9L948,146.2L948,146.1ZM975.9,122.9L975.9,117.1L982.6,117.1L982.6,122.9L975.9,122.9ZM975.9,152L975.9,126.7L982.6,126.7L982.6,152L975.9,152ZM992.9,161.1C991.8,161.1 990.7,160.9 989.7,160.4C988.7,160 987.9,159.3 987.3,158.4C986.7,157.5 986.4,156.4 986.4,155.2C986.4,154 986.8,152.7 987.6,151.8C988.4,150.9 989.4,150.3 990.4,149.9C989.7,149.5 989.1,148.9 988.6,148.3C988.1,147.6 987.9,146.8 987.9,145.9C987.9,145 988.4,143.6 989.2,142.9C990.1,142.1 991.2,141.6 992.4,141.4C991.2,140.7 990.3,139.7 989.6,138.6C989,137.4 988.6,136.2 988.6,134.7C988.6,133.2 989,131.3 989.9,130.1C990.8,128.8 992.1,127.9 993.9,127.3C995.6,126.6 997.7,126.3 1000,126.3C1002.3,126.3 1001.8,126.3 1002.6,126.4C1003.4,126.4 1004.2,126.7 1004.9,126.9C1006.1,126.2 1006.9,125.4 1007.3,124.6C1007.8,123.7 1008,123 1008,122.5L1014.2,122.5C1014.2,123.7 1014,124.7 1013.5,125.6C1013.1,126.5 1012.5,127.2 1011.7,127.8C1010.9,128.3 1009.9,128.7 1008.8,129C1009.6,129.7 1010.3,130.6 1010.7,131.6C1011.1,132.6 1011.4,133.7 1011.4,134.8C1011.4,136.6 1011,138.1 1010.1,139.4C1009.2,140.7 1008,141.6 1006.4,142.3C1004.8,143 1002.9,143.3 1000.7,143.3L996.8,143.3C996,143.3 995.5,143.4 995.1,143.7C994.7,144 994.5,144.3 994.5,144.9C994.5,145.5 994.7,145.7 995,146C995.4,146.3 995.9,146.4 996.7,146.4L1007.3,146.4C1009.4,146.4 1011.1,147.1 1012.4,148.4C1013.7,149.7 1014.3,151.3 1014.3,153.4C1014.3,155.5 1013.9,156.3 1013.1,157.5C1012.3,158.7 1011.2,159.6 1009.8,160.3C1008.4,161 1006.8,161.3 1004.9,161.3L992.9,161.3L992.9,161.1ZM995.7,156.6L1004.6,156.6C1005.2,156.6 1005.7,156.5 1006.1,156.3C1006.6,156.1 1006.9,155.8 1007.2,155.4C1007.5,155 1007.6,154.6 1007.6,154.1C1007.6,153.3 1007.3,152.6 1006.8,152.2C1006.3,151.8 1005.6,151.6 1004.9,151.6L995.7,151.6C994.9,151.6 994.3,151.8 993.8,152.3C993.3,152.8 993.1,153.3 993.1,154.1C993.1,154.9 993.3,155.4 993.8,155.9C994.3,156.4 995,156.6 995.7,156.6ZM1000.1,138.7C1001.7,138.7 1002.9,138.3 1003.7,137.6C1004.5,136.9 1005,135.8 1005,134.5C1005,133.2 1004.6,132.1 1003.7,131.4C1002.9,130.7 1001.7,130.3 1000.1,130.3C998.5,130.3 997.4,130.7 996.5,131.4C995.7,132.1 995.3,133.1 995.3,134.5C995.3,135.9 995.5,136.1 995.8,136.8C996.2,137.4 996.7,137.9 997.4,138.2C998.1,138.5 999,138.7 1000.1,138.7ZM1018,122.9L1018,117.1L1024.7,117.1L1024.7,122.9L1018,122.9ZM1018,152L1018,126.7L1024.7,126.7L1024.7,152L1018,152ZM1038.4,152.6C1036.8,152.6 1035.5,152.3 1034.5,151.7C1033.5,151.1 1032.8,150.4 1032.3,149.4C1031.8,148.4 1031.6,147.3 1031.6,146.1L1031.6,131.8L1028.5,131.8L1028.5,126.6L1031.9,126.6L1033.1,119.4L1038.3,119.4L1038.3,126.6L1042.9,126.6L1042.9,131.8L1038.3,131.8L1038.3,145C1038.3,145.8 1038.5,146.4 1038.8,146.8C1039.1,147.2 1039.7,147.4 1040.5,147.4L1042.9,147.4L1042.9,151.8C1042.5,151.9 1042.1,152 1041.6,152.1C1041.1,152.2 1040.5,152.3 1040,152.4C1039.4,152.4 1038.9,152.5 1038.4,152.5L1038.4,152.6ZM1054,152.6C1053.2,152.6 1052.3,152.6 1051.3,152.3C1050.4,152.1 1049.5,151.8 1048.7,151.3C1047.9,150.8 1047.2,150.1 1046.6,149.1C1046.1,148.1 1045.8,146.9 1045.8,145.4C1045.8,143.9 1046.2,142.2 1047,141C1047.8,139.8 1048.9,138.9 1050.3,138.3C1051.7,137.6 1053.5,137.2 1055.5,136.9C1057.5,136.6 1059.7,136.5 1062.1,136.5L1062.1,134.6C1062.1,133.9 1062,133.2 1061.7,132.7C1061.5,132.2 1061,131.7 1060.4,131.4C1059.8,131.1 1059,130.9 1057.9,130.9C1056.8,130.9 1056,131 1055.3,131.3C1054.7,131.6 1054.2,131.9 1053.9,132.3C1053.7,132.7 1053.5,133.1 1053.5,133.6L1053.5,134.2L1047,134.2L1047,133.2C1047,131.7 1047.4,130.5 1048.3,129.4C1049.2,128.3 1050.5,127.5 1052.1,126.9C1053.7,126.3 1055.6,126 1057.8,126C1060,126 1062.1,126.3 1063.7,126.9C1065.3,127.5 1066.5,128.4 1067.4,129.6C1068.3,130.8 1068.7,132.3 1068.7,134.1L1068.7,145.6C1068.7,146.2 1068.9,146.6 1069.2,146.9C1069.5,147.2 1069.9,147.3 1070.4,147.3L1072,147.3L1072,151.7C1071.7,151.9 1071.2,152 1070.5,152.2C1069.8,152.4 1069,152.5 1068.1,152.5C1067.2,152.5 1066.3,152.4 1065.6,152.1C1064.9,151.8 1064.3,151.5 1063.8,151C1063.3,150.5 1063,149.9 1062.8,149.2L1062.5,149.2C1061.9,149.9 1061.3,150.5 1060.5,151C1059.7,151.5 1058.8,151.9 1057.8,152.2C1056.8,152.5 1055.6,152.6 1054.2,152.6L1054,152.6ZM1056.3,147.5C1057.2,147.5 1058,147.4 1058.7,147.1C1059.4,146.8 1060,146.4 1060.5,146C1061,145.5 1061.3,144.9 1061.6,144.3C1061.9,143.6 1062,142.9 1062,142.1L1062,140.7C1060.2,140.7 1058.6,140.8 1057.2,141.1C1055.8,141.3 1054.7,141.7 1053.8,142.3C1053,142.9 1052.6,143.7 1052.6,144.7C1052.6,145.7 1052.8,145.8 1053,146.2C1053.3,146.6 1053.7,146.9 1054.2,147.2C1054.8,147.4 1055.4,147.5 1056.2,147.5L1056.3,147.5ZM1075.3,152L1075.3,117.2L1082,117.2L1082,152L1075.3,152Z" style="fill:white;fill-rule:nonzero;"/>
                <path d="M566.1,192.5L532.5,143.2C528.2,137 518.9,137.1 514.6,143.2C513.4,145 512.6,147.1 512.7,149.3C513.7,163.4 513.6,192.9 549.9,192.9L566.1,192.5Z" style="fill:rgb(236,188,30);fill-rule:nonzero;"/>
                <path d="M534.3,190.6C534.3,190.6 517,184 514.9,158.6L511.4,92C511.4,92 509,77.4 492.7,73.8C487.8,72.7 482.6,72.9 477.9,74.9C473,77 467.5,81.4 466,90.8C465.8,92.1 465.7,93.4 465.7,94.7C465.4,107.8 467.6,172 534.3,190.6Z" style="fill:url(#_Linear1);fill-rule:nonzero;"/>
                <path d="M474.3,70.9L534.3,67.5C541.9,67 546.6,59.1 543.4,52.4C542.4,50.5 541,48.7 539,47.8C526,41.5 502.2,21.8 481.6,57.2L474.4,70.9L474.3,70.9Z" style="fill:rgb(144,24,27);fill-rule:nonzero;"/>
                <path d="M488.6,70.1L536.5,67.4C542.6,67 546.3,59.4 543.6,52.8C542.8,50.9 541.6,49.2 540,48.2C529.6,42 510.4,22.5 494.3,56.8L488.7,70.1L488.6,70.1Z" style="fill:rgb(236,188,30);fill-rule:nonzero;"/>
                <path d="M490.7,44.8C490.7,44.8 505,33.2 528.8,43.5L590.2,72.6C590.2,72.6 604.5,77.6 615.6,65.3C619,61.6 621.3,57 621.8,52.1C622.3,46.9 621,40.1 613.3,34.3C612.2,33.5 611.1,32.8 610,32.2C598.4,25.7 539.8,-3.3 490.8,44.8L490.7,44.8Z" style="fill:url(#_Linear2);fill-rule:nonzero;"/>
                <path d="M625.6,54.1L599.2,106.9C595.8,113.6 600.5,121.5 608.1,122.1C610.3,122.3 612.6,121.8 614.4,120.6C626.4,112.7 656.4,102.7 634.7,67.3L625.5,54.2L625.6,54.1Z" style="fill:rgb(236,188,30);fill-rule:nonzero;"/>
                <path d="M641.2,81.1C641.2,81.1 644.4,99 623.3,114.1L566.9,151.8C566.9,151.8 555.4,161.5 560.7,176.9C562.3,181.6 565.2,185.8 569.3,188.6C573.7,191.6 580.4,193.9 589.4,190.2C590.6,189.7 591.8,189.1 592.9,188.4C604.5,181.8 659.5,146.4 641.2,81L641.2,81.1Z" style="fill:url(#_Linear3);fill-rule:nonzero;"/>
            </g>
        </g>
    </g>
    <defs>
        <linearGradient id="_Linear1" x1="0" y1="0" x2="1" y2="0" gradientUnits="userSpaceOnUse" gradientTransform="matrix(28.6,80.3,-80.3,28.6,483.8,90.2)"><stop offset="0" style="stop-color:rgb(0,173,229);stop-opacity:1"/><stop offset="0.8" style="stop-color:rgb(0,109,176);stop-opacity:1"/><stop offset="1" style="stop-color:rgb(0,109,176);stop-opacity:1"/></linearGradient>
        <linearGradient id="_Linear2" x1="0" y1="0" x2="1" y2="0" gradientUnits="userSpaceOnUse" gradientTransform="matrix(5.4,42.9,-42.9,5.4,553.4,24)"><stop offset="0" style="stop-color:rgb(0,173,229);stop-opacity:1"/><stop offset="0.8" style="stop-color:rgb(0,109,176);stop-opacity:1"/><stop offset="1" style="stop-color:rgb(0,109,176);stop-opacity:1"/></linearGradient>
        <linearGradient id="_Linear3" x1="0" y1="0" x2="1" y2="0" gradientUnits="userSpaceOnUse" gradientTransform="matrix(18.3,76.8,-76.8,18.3,593.1,96.3)"><stop offset="0" style="stop-color:rgb(0,173,229);stop-opacity:1"/><stop offset="0.8" style="stop-color:rgb(0,109,176);stop-opacity:1"/><stop offset="1" style="stop-color:rgb(0,109,176);stop-opacity:1"/></linearGradient>
    </defs>
</svg>
