<?xml version="1.0" encoding="UTF-8"?>
<svg id="Layer_1" xmlns="http://www.w3.org/2000/svg" xmlns:xlink="http://www.w3.org/1999/xlink" viewBox="0 0 1080 1080">
  <defs>
    <style>
      .cls-1 {
        fill: url(#linear-gradient-3);
      }

      .cls-2 {
        fill: url(#linear-gradient-2);
      }

      .cls-3 {
        fill: #90181b;
      }

      .cls-4 {
        fill: url(#linear-gradient);
      }

      .cls-5 {
        fill: #ecbc1e;
      }
    </style>
    <linearGradient id="linear-gradient" x1="125.46" y1="628.03" x2="292.1" y2="160.64" gradientTransform="translate(0 1080.31) scale(1 -1)" gradientUnits="userSpaceOnUse">
      <stop offset="0" stop-color="#00ade5"/>
      <stop offset=".76" stop-color="#006db0"/>
    </linearGradient>
    <linearGradient id="linear-gradient-2" x1="761.95" y1="592.45" x2="868.96" y2="145.43" xlink:href="#linear-gradient"/>
    <linearGradient id="linear-gradient-3" x1="530.79" y1="1013.83" x2="562.08" y2="764.2" xlink:href="#linear-gradient"/>
  </defs>
  <path class="cls-3" d="M191.38,257.18c35.39-75.35,73.27-107.01,110.1-115.21-60.87-10.02-128.11,10.52-190.35,117.41l-42.06,80.59,89.68-5.04,32.63-77.75Z"/>
  <path class="cls-5" d="M604.51,1048.3l-195.97-287.42c-25.02-35.97-79.29-35.79-104.3.34-7.22,10.47-11.71,22.91-10.87,35.5,5.88,82.27,5.17,254.09,216.74,254.09l94.31-2.58.09.07Z"/>
  <path class="cls-4" d="M419.65,1037.19s-100.77-38.53-113.32-186.53l-20.31-388.3s-14.24-85.32-108.94-105.96c-28.75-6.27-59-5.01-86.07,6.53-28.53,12.18-60.57,37.98-69.31,92.69-1.19,7.43-1.62,14.98-1.72,22.52-1.56,76.35,11.13,450.56,399.67,559.06Z"/>
  <path class="cls-5" d="M153.1,335.27l278.87-15.8c35.41-2.46,56.93-46.89,41.25-85.28-4.56-11.12-11.57-21.01-20.86-26.58-60.63-36.28-172.54-149.93-266.47,50.06l-32.8,77.6Z"/>
  <path class="cls-5" d="M951.64,241.7l-153.59,307.56c-19.54,39.19,7.5,85.14,51.94,88.36,12.87.91,26.11-1.51,36.9-8.52,70.1-46.02,244.45-104.03,118.26-310.84l-53.51-76.48v-.08Z"/>
  <path class="cls-2" d="M1042.13,399.33s18.58,104.26-104.17,192l-328.65,219.72s-67.17,56.42-36.12,146.31c9.44,27.28,26.21,51.9,50.35,68.44,25.42,17.45,64.57,30.68,116.92,9.45,7.16-2.89,13.89-6.5,20.6-10.34,67.52-38.55,387.8-244.56,281.15-625.59h-.08Z"/>
  <path class="cls-1" d="M165.57,187.7s83.35-67.74,222.09-7.29l357.73,169.28s83.34,28.86,147.78-42.31c19.55-21.54,33.11-48.1,35.88-76.76,2.92-30.28-4.69-70.03-49.44-103.89-6.13-4.61-12.64-8.55-19.39-12.31-67.68-38.05-409.07-207.08-694.71,73.36l.08-.09Z"/>
</svg>