<?xml version="1.0" encoding="UTF-8" standalone="no"?>
<!DOCTYPE svg PUBLIC "-//W3C//DTD SVG 1.1//EN" "http://www.w3.org/Graphics/SVG/1.1/DTD/svg11.dtd">
<svg width="100%" height="100%" viewBox="0 0 2105 1456" version="1.1" xmlns="http://www.w3.org/2000/svg" xmlns:xlink="http://www.w3.org/1999/xlink" xml:space="preserve" xmlns:serif="http://www.serif.com/" style="fill-rule:evenodd;clip-rule:evenodd;stroke-linejoin:round;stroke-miterlimit:2;">
    <g transform="matrix(1,0,0,1,70.399178,176.45507)">
        <g transform="matrix(1,0,0,1,-1446.075416,310.3889)">
            <g transform="matrix(2.299407,0,0,2.299407,235.574453,229.40515)">
                <path d="M522.926,104.383L505.641,114.352C505.414,114.48 505.219,114.652 505.059,114.859C504.898,115.066 504.785,115.297 504.719,115.551C504.648,115.801 504.633,116.059 504.664,116.32C504.699,116.578 504.781,116.82 504.91,117.051C505.043,117.277 505.211,117.469 505.418,117.629C505.629,117.789 505.855,117.902 506.109,117.973C506.363,118.039 506.621,118.059 506.879,118.023C507.141,117.992 507.383,117.91 507.609,117.777L524.895,107.781C525.145,107.664 525.359,107.5 525.539,107.293C525.723,107.082 525.852,106.848 525.934,106.586C526.016,106.32 526.043,106.055 526.012,105.781C525.98,105.508 525.895,105.25 525.758,105.012C525.617,104.773 525.438,104.574 525.215,104.41C524.992,104.246 524.75,104.137 524.48,104.078C524.211,104.016 523.941,104.016 523.672,104.066C523.402,104.121 523.152,104.227 522.926,104.383Z" style="fill:rgb(170,207,239);fill-rule:nonzero;"/>
            </g>
            <g transform="matrix(2.299407,0,0,2.299407,235.574453,229.40515)">
                <path d="M524.895,144.289L507.609,134.324C507.383,134.191 507.141,134.105 506.883,134.07C506.621,134.035 506.363,134.051 506.109,134.117C505.855,134.184 505.625,134.297 505.418,134.457C505.211,134.617 505.039,134.809 504.91,135.039C504.777,135.266 504.695,135.508 504.66,135.77C504.629,136.027 504.645,136.285 504.715,136.539C504.781,136.793 504.898,137.023 505.059,137.23C505.219,137.438 505.414,137.605 505.641,137.734L522.926,147.719C523.152,147.844 523.395,147.926 523.652,147.957C523.91,147.992 524.164,147.973 524.418,147.906C524.668,147.836 524.895,147.723 525.102,147.566C525.309,147.406 525.477,147.215 525.605,146.988C525.734,146.766 525.816,146.523 525.852,146.266C525.887,146.008 525.871,145.754 525.805,145.5C525.738,145.25 525.625,145.02 525.469,144.812C525.312,144.605 525.121,144.438 524.895,144.305L524.895,144.289Z" style="fill:rgb(170,207,239);fill-rule:nonzero;"/>
            </g>
            <g transform="matrix(2.299407,0,0,2.299407,235.574453,229.40515)">
                <path d="M541.195,137.988C541.457,137.988 541.711,137.938 541.949,137.836C542.191,137.738 542.406,137.594 542.59,137.41C542.773,137.227 542.918,137.012 543.016,136.77C543.117,136.531 543.168,136.277 543.168,136.016L543.168,116.062C543.168,115.801 543.117,115.547 543.016,115.309C542.918,115.066 542.773,114.852 542.59,114.668C542.406,114.484 542.191,114.34 541.949,114.242C541.711,114.141 541.457,114.09 541.195,114.09C540.938,114.09 540.684,114.141 540.441,114.242C540.203,114.34 539.988,114.484 539.805,114.668C539.621,114.852 539.477,115.066 539.379,115.309C539.277,115.547 539.227,115.801 539.227,116.062L539.227,136.016C539.227,136.277 539.277,136.531 539.379,136.77C539.477,137.012 539.621,137.227 539.805,137.41C539.988,137.594 540.203,137.738 540.441,137.836C540.684,137.938 540.938,137.988 541.195,137.988Z" style="fill:rgb(170,207,239);fill-rule:nonzero;"/>
            </g>
            <g transform="matrix(2.299407,0,0,2.299407,235.574453,229.40515)">
                <path d="M506.633,208.656C506.984,208.656 507.312,208.566 507.617,208.391L524.902,198.406C525.129,198.277 525.32,198.105 525.477,197.898C525.633,197.691 525.746,197.465 525.812,197.211C525.879,196.961 525.895,196.707 525.859,196.449C525.824,196.191 525.742,195.949 525.613,195.723C525.484,195.5 525.316,195.309 525.109,195.148C524.902,194.988 524.676,194.875 524.426,194.809C524.172,194.738 523.918,194.723 523.66,194.754C523.402,194.789 523.16,194.867 522.934,194.996L505.641,204.988C505.254,205.207 504.973,205.527 504.801,205.938C504.629,206.352 504.602,206.773 504.715,207.207C504.832,207.637 505.066,207.988 505.422,208.262C505.777,208.531 506.18,208.668 506.625,208.664L506.633,208.656Z" style="fill:rgb(170,207,239);fill-rule:nonzero;"/>
            </g>
            <g transform="matrix(2.299407,0,0,2.299407,235.574453,229.40515)">
                <path d="M525.621,237.613C525.754,237.387 525.836,237.141 525.867,236.883C525.902,236.621 525.887,236.367 525.816,236.113C525.75,235.859 525.637,235.633 525.477,235.422C525.316,235.215 525.125,235.047 524.895,234.918L507.609,224.926C507.383,224.797 507.141,224.719 506.883,224.688C506.625,224.652 506.371,224.672 506.121,224.738C505.871,224.809 505.641,224.922 505.438,225.078C505.23,225.238 505.062,225.43 504.934,225.656C504.801,225.879 504.719,226.121 504.684,226.379C504.652,226.637 504.668,226.891 504.734,227.145C504.801,227.395 504.91,227.625 505.07,227.832C505.227,228.039 505.418,228.207 505.641,228.34L522.926,238.32C523.152,238.453 523.395,238.535 523.656,238.57C523.914,238.602 524.172,238.586 524.426,238.52C524.676,238.449 524.906,238.336 525.113,238.176C525.32,238.016 525.492,237.824 525.621,237.598L525.621,237.613Z" style="fill:rgb(170,207,239);fill-rule:nonzero;"/>
            </g>
            <g transform="matrix(2.299407,0,0,2.299407,235.574453,229.40515)">
                <path d="M541.195,228.613C541.457,228.613 541.711,228.562 541.949,228.465C542.191,228.363 542.406,228.223 542.59,228.039C542.773,227.852 542.918,227.641 543.016,227.398C543.117,227.156 543.168,226.906 543.168,226.645L543.168,206.688C543.168,206.426 543.117,206.176 543.016,205.934C542.918,205.691 542.773,205.48 542.59,205.297C542.406,205.109 542.191,204.969 541.949,204.867C541.711,204.77 541.457,204.719 541.195,204.719C540.938,204.719 540.684,204.77 540.441,204.867C540.203,204.969 539.988,205.109 539.805,205.297C539.621,205.48 539.477,205.691 539.379,205.934C539.277,206.176 539.227,206.426 539.227,206.688L539.227,226.645C539.227,226.906 539.277,227.156 539.379,227.398C539.477,227.641 539.621,227.852 539.805,228.039C539.988,228.223 540.203,228.363 540.441,228.465C540.684,228.562 540.938,228.613 541.195,228.613Z" style="fill:rgb(170,207,239);fill-rule:nonzero;"/>
            </g>
            <g transform="matrix(2.299407,0,0,2.299407,235.574453,229.40515)">
                <path d="M602.004,139.105L573.918,155.328L573.918,185.375L550.027,199.164L537.949,192.191L525.883,185.219L525.883,157.336L551.016,142.824L551.984,142.266L551.984,109.82L523.91,93.605L522.926,94.141L509.871,101.715L495.824,109.82L495.824,142.25L496.793,142.809L521.926,157.32L521.926,185.219L505.184,194.895L495.824,200.297L495.824,232.883L523.91,249.098L552,232.883L552,202.574L575.785,188.844L601.996,203.977L630.082,187.766L630.082,155.328L602.004,139.105ZM499.762,202.727L523.91,188.781L548.059,202.727L548.059,230.441L523.91,244.387L499.762,230.441L499.762,202.727ZM548.059,139.98L523.91,153.918L499.762,139.98L499.762,112.098L511.84,105.125L523.91,98.152L548.059,112.098L548.059,139.98ZM626.152,185.488L602.004,199.434L577.926,185.535C577.926,185.488 577.887,185.434 577.855,185.383L577.855,157.598L602.004,143.652L626.152,157.598L626.152,185.488Z" style="fill:rgb(170,207,239);fill-rule:nonzero;"/>
            </g>
            <g transform="matrix(2.299407,0,0,2.299407,416.422767,334.765441)">
                <path d="M522.926,104.383L505.641,114.352C505.414,114.48 505.219,114.652 505.059,114.859C504.898,115.066 504.785,115.297 504.719,115.551C504.648,115.801 504.633,116.059 504.664,116.32C504.699,116.578 504.781,116.82 504.91,117.051C505.043,117.277 505.211,117.469 505.418,117.629C505.629,117.789 505.855,117.902 506.109,117.973C506.363,118.039 506.621,118.059 506.879,118.023C507.141,117.992 507.383,117.91 507.609,117.777L524.895,107.781C525.145,107.664 525.359,107.5 525.539,107.293C525.723,107.082 525.852,106.848 525.934,106.586C526.016,106.32 526.043,106.055 526.012,105.781C525.98,105.508 525.895,105.25 525.758,105.012C525.617,104.773 525.438,104.574 525.215,104.41C524.992,104.246 524.75,104.137 524.48,104.078C524.211,104.016 523.941,104.016 523.672,104.066C523.402,104.121 523.152,104.227 522.926,104.383Z" style="fill:rgb(170,207,239);fill-rule:nonzero;"/>
            </g>
            <g transform="matrix(2.299407,0,0,2.299407,416.422767,334.765441)">
                <path d="M524.895,144.289L507.609,134.324C507.383,134.191 507.141,134.105 506.883,134.07C506.621,134.035 506.363,134.051 506.109,134.117C505.855,134.184 505.625,134.297 505.418,134.457C505.211,134.617 505.039,134.809 504.91,135.039C504.777,135.266 504.695,135.508 504.66,135.77C504.629,136.027 504.645,136.285 504.715,136.539C504.781,136.793 504.898,137.023 505.059,137.23C505.219,137.438 505.414,137.605 505.641,137.734L522.926,147.719C523.152,147.844 523.395,147.926 523.652,147.957C523.91,147.992 524.164,147.973 524.418,147.906C524.668,147.836 524.895,147.723 525.102,147.566C525.309,147.406 525.477,147.215 525.605,146.988C525.734,146.766 525.816,146.523 525.852,146.266C525.887,146.008 525.871,145.754 525.805,145.5C525.738,145.25 525.625,145.02 525.469,144.812C525.312,144.605 525.121,144.438 524.895,144.305L524.895,144.289Z" style="fill:rgb(170,207,239);fill-rule:nonzero;"/>
            </g>
            <g transform="matrix(2.299407,0,0,2.299407,416.422767,334.765441)">
                <path d="M541.195,137.988C541.457,137.988 541.711,137.938 541.949,137.836C542.191,137.738 542.406,137.594 542.59,137.41C542.773,137.227 542.918,137.012 543.016,136.77C543.117,136.531 543.168,136.277 543.168,136.016L543.168,116.062C543.168,115.801 543.117,115.547 543.016,115.309C542.918,115.066 542.773,114.852 542.59,114.668C542.406,114.484 542.191,114.34 541.949,114.242C541.711,114.141 541.457,114.09 541.195,114.09C540.938,114.09 540.684,114.141 540.441,114.242C540.203,114.34 539.988,114.484 539.805,114.668C539.621,114.852 539.477,115.066 539.379,115.309C539.277,115.547 539.227,115.801 539.227,116.062L539.227,136.016C539.227,136.277 539.277,136.531 539.379,136.77C539.477,137.012 539.621,137.227 539.805,137.41C539.988,137.594 540.203,137.738 540.441,137.836C540.684,137.938 540.938,137.988 541.195,137.988Z" style="fill:rgb(170,207,239);fill-rule:nonzero;"/>
            </g>
        </g>
        <g transform="matrix(-1,0,0,1,1794.758534,476.515715)">
            <g transform="matrix(2.299407,0,0,2.299407,235.574453,229.40515)">
                <path d="M522.926,104.383L505.641,114.352C505.414,114.48 505.219,114.652 505.059,114.859C504.898,115.066 504.785,115.297 504.719,115.551C504.648,115.801 504.633,116.059 504.664,116.32C504.699,116.578 504.781,116.82 504.91,117.051C505.043,117.277 505.211,117.469 505.418,117.629C505.629,117.789 505.855,117.902 506.109,117.973C506.363,118.039 506.621,118.059 506.879,118.023C507.141,117.992 507.383,117.91 507.609,117.777L524.895,107.781C525.145,107.664 525.359,107.5 525.539,107.293C525.723,107.082 525.852,106.848 525.934,106.586C526.016,106.32 526.043,106.055 526.012,105.781C525.98,105.508 525.895,105.25 525.758,105.012C525.617,104.773 525.438,104.574 525.215,104.41C524.992,104.246 524.75,104.137 524.48,104.078C524.211,104.016 523.941,104.016 523.672,104.066C523.402,104.121 523.152,104.227 522.926,104.383Z" style="fill:rgb(170,207,239);fill-rule:nonzero;"/>
            </g>
            <g transform="matrix(2.299407,0,0,2.299407,235.574453,229.40515)">
                <path d="M524.895,144.289L507.609,134.324C507.383,134.191 507.141,134.105 506.883,134.07C506.621,134.035 506.363,134.051 506.109,134.117C505.855,134.184 505.625,134.297 505.418,134.457C505.211,134.617 505.039,134.809 504.91,135.039C504.777,135.266 504.695,135.508 504.66,135.77C504.629,136.027 504.645,136.285 504.715,136.539C504.781,136.793 504.898,137.023 505.059,137.23C505.219,137.438 505.414,137.605 505.641,137.734L522.926,147.719C523.152,147.844 523.395,147.926 523.652,147.957C523.91,147.992 524.164,147.973 524.418,147.906C524.668,147.836 524.895,147.723 525.102,147.566C525.309,147.406 525.477,147.215 525.605,146.988C525.734,146.766 525.816,146.523 525.852,146.266C525.887,146.008 525.871,145.754 525.805,145.5C525.738,145.25 525.625,145.02 525.469,144.812C525.312,144.605 525.121,144.438 524.895,144.305L524.895,144.289Z" style="fill:rgb(170,207,239);fill-rule:nonzero;"/>
            </g>
            <g transform="matrix(2.299407,0,0,2.299407,235.574453,229.40515)">
                <path d="M541.195,137.988C541.457,137.988 541.711,137.938 541.949,137.836C542.191,137.738 542.406,137.594 542.59,137.41C542.773,137.227 542.918,137.012 543.016,136.77C543.117,136.531 543.168,136.277 543.168,136.016L543.168,116.062C543.168,115.801 543.117,115.547 543.016,115.309C542.918,115.066 542.773,114.852 542.59,114.668C542.406,114.484 542.191,114.34 541.949,114.242C541.711,114.141 541.457,114.09 541.195,114.09C540.938,114.09 540.684,114.141 540.441,114.242C540.203,114.34 539.988,114.484 539.805,114.668C539.621,114.852 539.477,115.066 539.379,115.309C539.277,115.547 539.227,115.801 539.227,116.062L539.227,136.016C539.227,136.277 539.277,136.531 539.379,136.77C539.477,137.012 539.621,137.227 539.805,137.41C539.988,137.594 540.203,137.738 540.441,137.836C540.684,137.938 540.938,137.988 541.195,137.988Z" style="fill:rgb(170,207,239);fill-rule:nonzero;"/>
            </g>
            <g transform="matrix(2.299407,0,0,2.299407,235.574453,229.40515)">
                <path d="M506.633,208.656C506.984,208.656 507.312,208.566 507.617,208.391L524.902,198.406C525.129,198.277 525.32,198.105 525.477,197.898C525.633,197.691 525.746,197.465 525.812,197.211C525.879,196.961 525.895,196.707 525.859,196.449C525.824,196.191 525.742,195.949 525.613,195.723C525.484,195.5 525.316,195.309 525.109,195.148C524.902,194.988 524.676,194.875 524.426,194.809C524.172,194.738 523.918,194.723 523.66,194.754C523.402,194.789 523.16,194.867 522.934,194.996L505.641,204.988C505.254,205.207 504.973,205.527 504.801,205.938C504.629,206.352 504.602,206.773 504.715,207.207C504.832,207.637 505.066,207.988 505.422,208.262C505.777,208.531 506.18,208.668 506.625,208.664L506.633,208.656Z" style="fill:rgb(170,207,239);fill-rule:nonzero;"/>
            </g>
            <g transform="matrix(2.299407,0,0,2.299407,235.574453,229.40515)">
                <path d="M525.621,237.613C525.754,237.387 525.836,237.141 525.867,236.883C525.902,236.621 525.887,236.367 525.816,236.113C525.75,235.859 525.637,235.633 525.477,235.422C525.316,235.215 525.125,235.047 524.895,234.918L507.609,224.926C507.383,224.797 507.141,224.719 506.883,224.688C506.625,224.652 506.371,224.672 506.121,224.738C505.871,224.809 505.641,224.922 505.438,225.078C505.23,225.238 505.062,225.43 504.934,225.656C504.801,225.879 504.719,226.121 504.684,226.379C504.652,226.637 504.668,226.891 504.734,227.145C504.801,227.395 504.91,227.625 505.07,227.832C505.227,228.039 505.418,228.207 505.641,228.34L522.926,238.32C523.152,238.453 523.395,238.535 523.656,238.57C523.914,238.602 524.172,238.586 524.426,238.52C524.676,238.449 524.906,238.336 525.113,238.176C525.32,238.016 525.492,237.824 525.621,237.598L525.621,237.613Z" style="fill:rgb(170,207,239);fill-rule:nonzero;"/>
            </g>
            <g transform="matrix(2.299407,0,0,2.299407,235.574453,229.40515)">
                <path d="M541.195,228.613C541.457,228.613 541.711,228.562 541.949,228.465C542.191,228.363 542.406,228.223 542.59,228.039C542.773,227.852 542.918,227.641 543.016,227.398C543.117,227.156 543.168,226.906 543.168,226.645L543.168,206.688C543.168,206.426 543.117,206.176 543.016,205.934C542.918,205.691 542.773,205.48 542.59,205.297C542.406,205.109 542.191,204.969 541.949,204.867C541.711,204.77 541.457,204.719 541.195,204.719C540.938,204.719 540.684,204.77 540.441,204.867C540.203,204.969 539.988,205.109 539.805,205.297C539.621,205.48 539.477,205.691 539.379,205.934C539.277,206.176 539.227,206.426 539.227,206.688L539.227,226.645C539.227,226.906 539.277,227.156 539.379,227.398C539.477,227.641 539.621,227.852 539.805,228.039C539.988,228.223 540.203,228.363 540.441,228.465C540.684,228.562 540.938,228.613 541.195,228.613Z" style="fill:rgb(170,207,239);fill-rule:nonzero;"/>
            </g>
            <g transform="matrix(2.299407,0,0,2.299407,235.574453,229.40515)">
                <path d="M602.004,139.105L573.918,155.328L573.918,185.375L550.027,199.164L537.949,192.191L525.883,185.219L525.883,157.336L551.016,142.824L551.984,142.266L551.984,109.82L523.91,93.605L522.926,94.141L509.871,101.715L495.824,109.82L495.824,142.25L496.793,142.809L521.926,157.32L521.926,185.219L505.184,194.895L495.824,200.297L495.824,232.883L523.91,249.098L552,232.883L552,202.574L575.785,188.844L601.996,203.977L630.082,187.766L630.082,155.328L602.004,139.105ZM499.762,202.727L523.91,188.781L548.059,202.727L548.059,230.441L523.91,244.387L499.762,230.441L499.762,202.727ZM548.059,139.98L523.91,153.918L499.762,139.98L499.762,112.098L511.84,105.125L523.91,98.152L548.059,112.098L548.059,139.98ZM626.152,185.488L602.004,199.434L577.926,185.535C577.926,185.488 577.887,185.434 577.855,185.383L577.855,157.598L602.004,143.652L626.152,157.598L626.152,185.488Z" style="fill:rgb(170,207,239);fill-rule:nonzero;"/>
            </g>
            <g transform="matrix(2.299407,0,0,2.299407,416.422767,334.765441)">
                <path d="M522.926,104.383L505.641,114.352C505.414,114.48 505.219,114.652 505.059,114.859C504.898,115.066 504.785,115.297 504.719,115.551C504.648,115.801 504.633,116.059 504.664,116.32C504.699,116.578 504.781,116.82 504.91,117.051C505.043,117.277 505.211,117.469 505.418,117.629C505.629,117.789 505.855,117.902 506.109,117.973C506.363,118.039 506.621,118.059 506.879,118.023C507.141,117.992 507.383,117.91 507.609,117.777L524.895,107.781C525.145,107.664 525.359,107.5 525.539,107.293C525.723,107.082 525.852,106.848 525.934,106.586C526.016,106.32 526.043,106.055 526.012,105.781C525.98,105.508 525.895,105.25 525.758,105.012C525.617,104.773 525.438,104.574 525.215,104.41C524.992,104.246 524.75,104.137 524.48,104.078C524.211,104.016 523.941,104.016 523.672,104.066C523.402,104.121 523.152,104.227 522.926,104.383Z" style="fill:rgb(170,207,239);fill-rule:nonzero;"/>
            </g>
            <g transform="matrix(2.299407,0,0,2.299407,416.422767,334.765441)">
                <path d="M524.895,144.289L507.609,134.324C507.383,134.191 507.141,134.105 506.883,134.07C506.621,134.035 506.363,134.051 506.109,134.117C505.855,134.184 505.625,134.297 505.418,134.457C505.211,134.617 505.039,134.809 504.91,135.039C504.777,135.266 504.695,135.508 504.66,135.77C504.629,136.027 504.645,136.285 504.715,136.539C504.781,136.793 504.898,137.023 505.059,137.23C505.219,137.438 505.414,137.605 505.641,137.734L522.926,147.719C523.152,147.844 523.395,147.926 523.652,147.957C523.91,147.992 524.164,147.973 524.418,147.906C524.668,147.836 524.895,147.723 525.102,147.566C525.309,147.406 525.477,147.215 525.605,146.988C525.734,146.766 525.816,146.523 525.852,146.266C525.887,146.008 525.871,145.754 525.805,145.5C525.738,145.25 525.625,145.02 525.469,144.812C525.312,144.605 525.121,144.438 524.895,144.305L524.895,144.289Z" style="fill:rgb(170,207,239);fill-rule:nonzero;"/>
            </g>
            <g transform="matrix(2.299407,0,0,2.299407,416.422767,334.765441)">
                <path d="M541.195,137.988C541.457,137.988 541.711,137.938 541.949,137.836C542.191,137.738 542.406,137.594 542.59,137.41C542.773,137.227 542.918,137.012 543.016,136.77C543.117,136.531 543.168,136.277 543.168,136.016L543.168,116.062C543.168,115.801 543.117,115.547 543.016,115.309C542.918,115.066 542.773,114.852 542.59,114.668C542.406,114.484 542.191,114.34 541.949,114.242C541.711,114.141 541.457,114.09 541.195,114.09C540.938,114.09 540.684,114.141 540.441,114.242C540.203,114.34 539.988,114.484 539.805,114.668C539.621,114.852 539.477,115.066 539.379,115.309C539.277,115.547 539.227,115.801 539.227,116.062L539.227,136.016C539.227,136.277 539.277,136.531 539.379,136.77C539.477,137.012 539.621,137.227 539.805,137.41C539.988,137.594 540.203,137.738 540.441,137.836C540.684,137.938 540.938,137.988 541.195,137.988Z" style="fill:rgb(170,207,239);fill-rule:nonzero;"/>
            </g>
        </g>
        <g transform="matrix(1,0,0,-1,18.833201,625.727027)">
            <g transform="matrix(2.299407,0,0,2.299407,235.574453,229.40515)">
                <path d="M522.926,104.383L505.641,114.352C505.414,114.48 505.219,114.652 505.059,114.859C504.898,115.066 504.785,115.297 504.719,115.551C504.648,115.801 504.633,116.059 504.664,116.32C504.699,116.578 504.781,116.82 504.91,117.051C505.043,117.277 505.211,117.469 505.418,117.629C505.629,117.789 505.855,117.902 506.109,117.973C506.363,118.039 506.621,118.059 506.879,118.023C507.141,117.992 507.383,117.91 507.609,117.777L524.895,107.781C525.145,107.664 525.359,107.5 525.539,107.293C525.723,107.082 525.852,106.848 525.934,106.586C526.016,106.32 526.043,106.055 526.012,105.781C525.98,105.508 525.895,105.25 525.758,105.012C525.617,104.773 525.438,104.574 525.215,104.41C524.992,104.246 524.75,104.137 524.48,104.078C524.211,104.016 523.941,104.016 523.672,104.066C523.402,104.121 523.152,104.227 522.926,104.383Z" style="fill:rgb(170,207,239);fill-rule:nonzero;"/>
            </g>
            <g transform="matrix(2.299407,0,0,2.299407,235.574453,229.40515)">
                <path d="M524.895,144.289L507.609,134.324C507.383,134.191 507.141,134.105 506.883,134.07C506.621,134.035 506.363,134.051 506.109,134.117C505.855,134.184 505.625,134.297 505.418,134.457C505.211,134.617 505.039,134.809 504.91,135.039C504.777,135.266 504.695,135.508 504.66,135.77C504.629,136.027 504.645,136.285 504.715,136.539C504.781,136.793 504.898,137.023 505.059,137.23C505.219,137.438 505.414,137.605 505.641,137.734L522.926,147.719C523.152,147.844 523.395,147.926 523.652,147.957C523.91,147.992 524.164,147.973 524.418,147.906C524.668,147.836 524.895,147.723 525.102,147.566C525.309,147.406 525.477,147.215 525.605,146.988C525.734,146.766 525.816,146.523 525.852,146.266C525.887,146.008 525.871,145.754 525.805,145.5C525.738,145.25 525.625,145.02 525.469,144.812C525.312,144.605 525.121,144.438 524.895,144.305L524.895,144.289Z" style="fill:rgb(170,207,239);fill-rule:nonzero;"/>
            </g>
            <g transform="matrix(2.299407,0,0,2.299407,235.574453,229.40515)">
                <path d="M541.195,137.988C541.457,137.988 541.711,137.938 541.949,137.836C542.191,137.738 542.406,137.594 542.59,137.41C542.773,137.227 542.918,137.012 543.016,136.77C543.117,136.531 543.168,136.277 543.168,136.016L543.168,116.062C543.168,115.801 543.117,115.547 543.016,115.309C542.918,115.066 542.773,114.852 542.59,114.668C542.406,114.484 542.191,114.34 541.949,114.242C541.711,114.141 541.457,114.09 541.195,114.09C540.938,114.09 540.684,114.141 540.441,114.242C540.203,114.34 539.988,114.484 539.805,114.668C539.621,114.852 539.477,115.066 539.379,115.309C539.277,115.547 539.227,115.801 539.227,116.062L539.227,136.016C539.227,136.277 539.277,136.531 539.379,136.77C539.477,137.012 539.621,137.227 539.805,137.41C539.988,137.594 540.203,137.738 540.441,137.836C540.684,137.938 540.938,137.988 541.195,137.988Z" style="fill:rgb(170,207,239);fill-rule:nonzero;"/>
            </g>
            <g transform="matrix(2.299407,0,0,2.299407,235.574453,229.40515)">
                <path d="M506.633,208.656C506.984,208.656 507.312,208.566 507.617,208.391L524.902,198.406C525.129,198.277 525.32,198.105 525.477,197.898C525.633,197.691 525.746,197.465 525.812,197.211C525.879,196.961 525.895,196.707 525.859,196.449C525.824,196.191 525.742,195.949 525.613,195.723C525.484,195.5 525.316,195.309 525.109,195.148C524.902,194.988 524.676,194.875 524.426,194.809C524.172,194.738 523.918,194.723 523.66,194.754C523.402,194.789 523.16,194.867 522.934,194.996L505.641,204.988C505.254,205.207 504.973,205.527 504.801,205.938C504.629,206.352 504.602,206.773 504.715,207.207C504.832,207.637 505.066,207.988 505.422,208.262C505.777,208.531 506.18,208.668 506.625,208.664L506.633,208.656Z" style="fill:rgb(170,207,239);fill-rule:nonzero;"/>
            </g>
            <g transform="matrix(2.299407,0,0,2.299407,235.574453,229.40515)">
                <path d="M525.621,237.613C525.754,237.387 525.836,237.141 525.867,236.883C525.902,236.621 525.887,236.367 525.816,236.113C525.75,235.859 525.637,235.633 525.477,235.422C525.316,235.215 525.125,235.047 524.895,234.918L507.609,224.926C507.383,224.797 507.141,224.719 506.883,224.688C506.625,224.652 506.371,224.672 506.121,224.738C505.871,224.809 505.641,224.922 505.438,225.078C505.23,225.238 505.062,225.43 504.934,225.656C504.801,225.879 504.719,226.121 504.684,226.379C504.652,226.637 504.668,226.891 504.734,227.145C504.801,227.395 504.91,227.625 505.07,227.832C505.227,228.039 505.418,228.207 505.641,228.34L522.926,238.32C523.152,238.453 523.395,238.535 523.656,238.57C523.914,238.602 524.172,238.586 524.426,238.52C524.676,238.449 524.906,238.336 525.113,238.176C525.32,238.016 525.492,237.824 525.621,237.598L525.621,237.613Z" style="fill:rgb(170,207,239);fill-rule:nonzero;"/>
            </g>
            <g transform="matrix(2.299407,0,0,2.299407,235.574453,229.40515)">
                <path d="M541.195,228.613C541.457,228.613 541.711,228.562 541.949,228.465C542.191,228.363 542.406,228.223 542.59,228.039C542.773,227.852 542.918,227.641 543.016,227.398C543.117,227.156 543.168,226.906 543.168,226.645L543.168,206.688C543.168,206.426 543.117,206.176 543.016,205.934C542.918,205.691 542.773,205.48 542.59,205.297C542.406,205.109 542.191,204.969 541.949,204.867C541.711,204.77 541.457,204.719 541.195,204.719C540.938,204.719 540.684,204.77 540.441,204.867C540.203,204.969 539.988,205.109 539.805,205.297C539.621,205.48 539.477,205.691 539.379,205.934C539.277,206.176 539.227,206.426 539.227,206.688L539.227,226.645C539.227,226.906 539.277,227.156 539.379,227.398C539.477,227.641 539.621,227.852 539.805,228.039C539.988,228.223 540.203,228.363 540.441,228.465C540.684,228.562 540.938,228.613 541.195,228.613Z" style="fill:rgb(170,207,239);fill-rule:nonzero;"/>
            </g>
            <g transform="matrix(2.299407,0,0,2.299407,235.574453,229.40515)">
                <path d="M602.004,139.105L573.918,155.328L573.918,185.375L550.027,199.164L537.949,192.191L525.883,185.219L525.883,157.336L551.016,142.824L551.984,142.266L551.984,109.82L523.91,93.605L522.926,94.141L509.871,101.715L495.824,109.82L495.824,142.25L496.793,142.809L521.926,157.32L521.926,185.219L505.184,194.895L495.824,200.297L495.824,232.883L523.91,249.098L552,232.883L552,202.574L575.785,188.844L601.996,203.977L630.082,187.766L630.082,155.328L602.004,139.105ZM499.762,202.727L523.91,188.781L548.059,202.727L548.059,230.441L523.91,244.387L499.762,230.441L499.762,202.727ZM548.059,139.98L523.91,153.918L499.762,139.98L499.762,112.098L511.84,105.125L523.91,98.152L548.059,112.098L548.059,139.98ZM626.152,185.488L602.004,199.434L577.926,185.535C577.926,185.488 577.887,185.434 577.855,185.383L577.855,157.598L602.004,143.652L626.152,157.598L626.152,185.488Z" style="fill:rgb(170,207,239);fill-rule:nonzero;"/>
            </g>
            <g transform="matrix(2.299407,0,0,2.299407,416.422767,334.765441)">
                <path d="M522.926,104.383L505.641,114.352C505.414,114.48 505.219,114.652 505.059,114.859C504.898,115.066 504.785,115.297 504.719,115.551C504.648,115.801 504.633,116.059 504.664,116.32C504.699,116.578 504.781,116.82 504.91,117.051C505.043,117.277 505.211,117.469 505.418,117.629C505.629,117.789 505.855,117.902 506.109,117.973C506.363,118.039 506.621,118.059 506.879,118.023C507.141,117.992 507.383,117.91 507.609,117.777L524.895,107.781C525.145,107.664 525.359,107.5 525.539,107.293C525.723,107.082 525.852,106.848 525.934,106.586C526.016,106.32 526.043,106.055 526.012,105.781C525.98,105.508 525.895,105.25 525.758,105.012C525.617,104.773 525.438,104.574 525.215,104.41C524.992,104.246 524.75,104.137 524.48,104.078C524.211,104.016 523.941,104.016 523.672,104.066C523.402,104.121 523.152,104.227 522.926,104.383Z" style="fill:rgb(170,207,239);fill-rule:nonzero;"/>
            </g>
            <g transform="matrix(2.299407,0,0,2.299407,416.422767,334.765441)">
                <path d="M524.895,144.289L507.609,134.324C507.383,134.191 507.141,134.105 506.883,134.07C506.621,134.035 506.363,134.051 506.109,134.117C505.855,134.184 505.625,134.297 505.418,134.457C505.211,134.617 505.039,134.809 504.91,135.039C504.777,135.266 504.695,135.508 504.66,135.77C504.629,136.027 504.645,136.285 504.715,136.539C504.781,136.793 504.898,137.023 505.059,137.23C505.219,137.438 505.414,137.605 505.641,137.734L522.926,147.719C523.152,147.844 523.395,147.926 523.652,147.957C523.91,147.992 524.164,147.973 524.418,147.906C524.668,147.836 524.895,147.723 525.102,147.566C525.309,147.406 525.477,147.215 525.605,146.988C525.734,146.766 525.816,146.523 525.852,146.266C525.887,146.008 525.871,145.754 525.805,145.5C525.738,145.25 525.625,145.02 525.469,144.812C525.312,144.605 525.121,144.438 524.895,144.305L524.895,144.289Z" style="fill:rgb(170,207,239);fill-rule:nonzero;"/>
            </g>
            <g transform="matrix(2.299407,0,0,2.299407,416.422767,334.765441)">
                <path d="M541.195,137.988C541.457,137.988 541.711,137.938 541.949,137.836C542.191,137.738 542.406,137.594 542.59,137.41C542.773,137.227 542.918,137.012 543.016,136.77C543.117,136.531 543.168,136.277 543.168,136.016L543.168,116.062C543.168,115.801 543.117,115.547 543.016,115.309C542.918,115.066 542.773,114.852 542.59,114.668C542.406,114.484 542.191,114.34 541.949,114.242C541.711,114.141 541.457,114.09 541.195,114.09C540.938,114.09 540.684,114.141 540.441,114.242C540.203,114.34 539.988,114.484 539.805,114.668C539.621,114.852 539.477,115.066 539.379,115.309C539.277,115.547 539.227,115.801 539.227,116.062L539.227,136.016C539.227,136.277 539.277,136.531 539.379,136.77C539.477,137.012 539.621,137.227 539.805,137.41C539.988,137.594 540.203,137.738 540.441,137.836C540.684,137.938 540.938,137.988 541.195,137.988Z" style="fill:rgb(170,207,239);fill-rule:nonzero;"/>
            </g>
        </g>
        <g transform="matrix(1,0,0,1,349.863762,-423.476328)">
            <g transform="matrix(2.299407,0,0,2.299407,235.574453,229.40515)">
                <path d="M522.926,104.383L505.641,114.352C505.414,114.48 505.219,114.652 505.059,114.859C504.898,115.066 504.785,115.297 504.719,115.551C504.648,115.801 504.633,116.059 504.664,116.32C504.699,116.578 504.781,116.82 504.91,117.051C505.043,117.277 505.211,117.469 505.418,117.629C505.629,117.789 505.855,117.902 506.109,117.973C506.363,118.039 506.621,118.059 506.879,118.023C507.141,117.992 507.383,117.91 507.609,117.777L524.895,107.781C525.145,107.664 525.359,107.5 525.539,107.293C525.723,107.082 525.852,106.848 525.934,106.586C526.016,106.32 526.043,106.055 526.012,105.781C525.98,105.508 525.895,105.25 525.758,105.012C525.617,104.773 525.438,104.574 525.215,104.41C524.992,104.246 524.75,104.137 524.48,104.078C524.211,104.016 523.941,104.016 523.672,104.066C523.402,104.121 523.152,104.227 522.926,104.383Z" style="fill:rgb(170,207,239);fill-rule:nonzero;"/>
            </g>
            <g transform="matrix(2.299407,0,0,2.299407,235.574453,229.40515)">
                <path d="M524.895,144.289L507.609,134.324C507.383,134.191 507.141,134.105 506.883,134.07C506.621,134.035 506.363,134.051 506.109,134.117C505.855,134.184 505.625,134.297 505.418,134.457C505.211,134.617 505.039,134.809 504.91,135.039C504.777,135.266 504.695,135.508 504.66,135.77C504.629,136.027 504.645,136.285 504.715,136.539C504.781,136.793 504.898,137.023 505.059,137.23C505.219,137.438 505.414,137.605 505.641,137.734L522.926,147.719C523.152,147.844 523.395,147.926 523.652,147.957C523.91,147.992 524.164,147.973 524.418,147.906C524.668,147.836 524.895,147.723 525.102,147.566C525.309,147.406 525.477,147.215 525.605,146.988C525.734,146.766 525.816,146.523 525.852,146.266C525.887,146.008 525.871,145.754 525.805,145.5C525.738,145.25 525.625,145.02 525.469,144.812C525.312,144.605 525.121,144.438 524.895,144.305L524.895,144.289Z" style="fill:rgb(170,207,239);fill-rule:nonzero;"/>
            </g>
            <g transform="matrix(2.299407,0,0,2.299407,235.574453,229.40515)">
                <path d="M541.195,137.988C541.457,137.988 541.711,137.938 541.949,137.836C542.191,137.738 542.406,137.594 542.59,137.41C542.773,137.227 542.918,137.012 543.016,136.77C543.117,136.531 543.168,136.277 543.168,136.016L543.168,116.062C543.168,115.801 543.117,115.547 543.016,115.309C542.918,115.066 542.773,114.852 542.59,114.668C542.406,114.484 542.191,114.34 541.949,114.242C541.711,114.141 541.457,114.09 541.195,114.09C540.938,114.09 540.684,114.141 540.441,114.242C540.203,114.34 539.988,114.484 539.805,114.668C539.621,114.852 539.477,115.066 539.379,115.309C539.277,115.547 539.227,115.801 539.227,116.062L539.227,136.016C539.227,136.277 539.277,136.531 539.379,136.77C539.477,137.012 539.621,137.227 539.805,137.41C539.988,137.594 540.203,137.738 540.441,137.836C540.684,137.938 540.938,137.988 541.195,137.988Z" style="fill:rgb(170,207,239);fill-rule:nonzero;"/>
            </g>
            <g transform="matrix(2.299407,0,0,2.299407,235.574453,229.40515)">
                <path d="M506.633,208.656C506.984,208.656 507.312,208.566 507.617,208.391L524.902,198.406C525.129,198.277 525.32,198.105 525.477,197.898C525.633,197.691 525.746,197.465 525.812,197.211C525.879,196.961 525.895,196.707 525.859,196.449C525.824,196.191 525.742,195.949 525.613,195.723C525.484,195.5 525.316,195.309 525.109,195.148C524.902,194.988 524.676,194.875 524.426,194.809C524.172,194.738 523.918,194.723 523.66,194.754C523.402,194.789 523.16,194.867 522.934,194.996L505.641,204.988C505.254,205.207 504.973,205.527 504.801,205.938C504.629,206.352 504.602,206.773 504.715,207.207C504.832,207.637 505.066,207.988 505.422,208.262C505.777,208.531 506.18,208.668 506.625,208.664L506.633,208.656Z" style="fill:rgb(170,207,239);fill-rule:nonzero;"/>
            </g>
            <g transform="matrix(2.299407,0,0,2.299407,235.574453,229.40515)">
                <path d="M525.621,237.613C525.754,237.387 525.836,237.141 525.867,236.883C525.902,236.621 525.887,236.367 525.816,236.113C525.75,235.859 525.637,235.633 525.477,235.422C525.316,235.215 525.125,235.047 524.895,234.918L507.609,224.926C507.383,224.797 507.141,224.719 506.883,224.688C506.625,224.652 506.371,224.672 506.121,224.738C505.871,224.809 505.641,224.922 505.438,225.078C505.23,225.238 505.062,225.43 504.934,225.656C504.801,225.879 504.719,226.121 504.684,226.379C504.652,226.637 504.668,226.891 504.734,227.145C504.801,227.395 504.91,227.625 505.07,227.832C505.227,228.039 505.418,228.207 505.641,228.34L522.926,238.32C523.152,238.453 523.395,238.535 523.656,238.57C523.914,238.602 524.172,238.586 524.426,238.52C524.676,238.449 524.906,238.336 525.113,238.176C525.32,238.016 525.492,237.824 525.621,237.598L525.621,237.613Z" style="fill:rgb(170,207,239);fill-rule:nonzero;"/>
            </g>
            <g transform="matrix(2.299407,0,0,2.299407,235.574453,229.40515)">
                <path d="M541.195,228.613C541.457,228.613 541.711,228.562 541.949,228.465C542.191,228.363 542.406,228.223 542.59,228.039C542.773,227.852 542.918,227.641 543.016,227.398C543.117,227.156 543.168,226.906 543.168,226.645L543.168,206.688C543.168,206.426 543.117,206.176 543.016,205.934C542.918,205.691 542.773,205.48 542.59,205.297C542.406,205.109 542.191,204.969 541.949,204.867C541.711,204.77 541.457,204.719 541.195,204.719C540.938,204.719 540.684,204.77 540.441,204.867C540.203,204.969 539.988,205.109 539.805,205.297C539.621,205.48 539.477,205.691 539.379,205.934C539.277,206.176 539.227,206.426 539.227,206.688L539.227,226.645C539.227,226.906 539.277,227.156 539.379,227.398C539.477,227.641 539.621,227.852 539.805,228.039C539.988,228.223 540.203,228.363 540.441,228.465C540.684,228.562 540.938,228.613 541.195,228.613Z" style="fill:rgb(170,207,239);fill-rule:nonzero;"/>
            </g>
            <g transform="matrix(2.299407,0,0,2.299407,235.574453,229.40515)">
                <path d="M602.004,139.105L573.918,155.328L573.918,185.375L550.027,199.164L537.949,192.191L525.883,185.219L525.883,157.336L551.016,142.824L551.984,142.266L551.984,109.82L523.91,93.605L522.926,94.141L509.871,101.715L495.824,109.82L495.824,142.25L496.793,142.809L521.926,157.32L521.926,185.219L505.184,194.895L495.824,200.297L495.824,232.883L523.91,249.098L552,232.883L552,202.574L575.785,188.844L601.996,203.977L630.082,187.766L630.082,155.328L602.004,139.105ZM499.762,202.727L523.91,188.781L548.059,202.727L548.059,230.441L523.91,244.387L499.762,230.441L499.762,202.727ZM548.059,139.98L523.91,153.918L499.762,139.98L499.762,112.098L511.84,105.125L523.91,98.152L548.059,112.098L548.059,139.98ZM626.152,185.488L602.004,199.434L577.926,185.535C577.926,185.488 577.887,185.434 577.855,185.383L577.855,157.598L602.004,143.652L626.152,157.598L626.152,185.488Z" style="fill:rgb(170,207,239);fill-rule:nonzero;"/>
            </g>
            <g transform="matrix(2.299407,0,0,2.299407,416.422767,334.765441)">
                <path d="M522.926,104.383L505.641,114.352C505.414,114.48 505.219,114.652 505.059,114.859C504.898,115.066 504.785,115.297 504.719,115.551C504.648,115.801 504.633,116.059 504.664,116.32C504.699,116.578 504.781,116.82 504.91,117.051C505.043,117.277 505.211,117.469 505.418,117.629C505.629,117.789 505.855,117.902 506.109,117.973C506.363,118.039 506.621,118.059 506.879,118.023C507.141,117.992 507.383,117.91 507.609,117.777L524.895,107.781C525.145,107.664 525.359,107.5 525.539,107.293C525.723,107.082 525.852,106.848 525.934,106.586C526.016,106.32 526.043,106.055 526.012,105.781C525.98,105.508 525.895,105.25 525.758,105.012C525.617,104.773 525.438,104.574 525.215,104.41C524.992,104.246 524.75,104.137 524.48,104.078C524.211,104.016 523.941,104.016 523.672,104.066C523.402,104.121 523.152,104.227 522.926,104.383Z" style="fill:rgb(170,207,239);fill-rule:nonzero;"/>
            </g>
            <g transform="matrix(2.299407,0,0,2.299407,416.422767,334.765441)">
                <path d="M524.895,144.289L507.609,134.324C507.383,134.191 507.141,134.105 506.883,134.07C506.621,134.035 506.363,134.051 506.109,134.117C505.855,134.184 505.625,134.297 505.418,134.457C505.211,134.617 505.039,134.809 504.91,135.039C504.777,135.266 504.695,135.508 504.66,135.77C504.629,136.027 504.645,136.285 504.715,136.539C504.781,136.793 504.898,137.023 505.059,137.23C505.219,137.438 505.414,137.605 505.641,137.734L522.926,147.719C523.152,147.844 523.395,147.926 523.652,147.957C523.91,147.992 524.164,147.973 524.418,147.906C524.668,147.836 524.895,147.723 525.102,147.566C525.309,147.406 525.477,147.215 525.605,146.988C525.734,146.766 525.816,146.523 525.852,146.266C525.887,146.008 525.871,145.754 525.805,145.5C525.738,145.25 525.625,145.02 525.469,144.812C525.312,144.605 525.121,144.438 524.895,144.305L524.895,144.289Z" style="fill:rgb(170,207,239);fill-rule:nonzero;"/>
            </g>
            <g transform="matrix(2.299407,0,0,2.299407,416.422767,334.765441)">
                <path d="M541.195,137.988C541.457,137.988 541.711,137.938 541.949,137.836C542.191,137.738 542.406,137.594 542.59,137.41C542.773,137.227 542.918,137.012 543.016,136.77C543.117,136.531 543.168,136.277 543.168,136.016L543.168,116.062C543.168,115.801 543.117,115.547 543.016,115.309C542.918,115.066 542.773,114.852 542.59,114.668C542.406,114.484 542.191,114.34 541.949,114.242C541.711,114.141 541.457,114.09 541.195,114.09C540.938,114.09 540.684,114.141 540.441,114.242C540.203,114.34 539.988,114.484 539.805,114.668C539.621,114.852 539.477,115.066 539.379,115.309C539.277,115.547 539.227,115.801 539.227,116.062L539.227,136.016C539.227,136.277 539.277,136.531 539.379,136.77C539.477,137.012 539.621,137.227 539.805,137.41C539.988,137.594 540.203,137.738 540.441,137.836C540.684,137.938 540.938,137.988 541.195,137.988Z" style="fill:rgb(170,207,239);fill-rule:nonzero;"/>
            </g>
        </g>
    </g>
</svg>
