<?xml version="1.0" encoding="UTF-8" standalone="no"?>
<!DOCTYPE svg PUBLIC "-//W3C//DTD SVG 1.1//EN" "http://www.w3.org/Graphics/SVG/1.1/DTD/svg11.dtd">
<svg width="100%" height="100%" viewBox="0 0 629 566" version="1.1" xmlns="http://www.w3.org/2000/svg" xmlns:xlink="http://www.w3.org/1999/xlink" xml:space="preserve" xmlns:serif="http://www.serif.com/" style="fill-rule:evenodd;clip-rule:evenodd;stroke-linejoin:round;stroke-miterlimit:2;">
    <g transform="matrix(1,0,0,1,-3065.262927,-2178.426753)">
        <g transform="matrix(8.333333,0,0,8.333333,0,0)">
            <g transform="matrix(0.021913,0,0,-0.021913,361.728765,360.191868)">
                <path d="M3649.22,1536.6L3514.45,1536.6L3514.45,3576.83C3514.45,3611.03 3486.72,3638.76 3452.52,3638.76L3059.22,3638.76C3025.02,3638.76 2997.29,3611.04 2997.29,3576.83L2997.29,1536.6L2876.82,1536.6L2876.82,3182.52C2876.82,3216.72 2849.09,3244.45 2814.89,3244.45L2421.6,3244.45C2387.4,3244.45 2359.67,3216.72 2359.67,3182.52L2359.67,1536.6L2239.19,1536.6L2239.19,2788.2C2239.19,2822.4 2211.46,2850.13 2177.26,2850.13L1783.97,2850.13C1749.77,2850.13 1722.04,2822.4 1722.04,2788.2L1722.04,1536.6L1601.56,1536.6L1601.56,2411.71C1601.56,2445.91 1573.84,2473.64 1539.63,2473.64L1146.34,2473.64C1112.14,2473.64 1084.41,2445.91 1084.41,2411.71L1084.41,1536.6L963.97,1536.6L963.97,2017.39C963.97,2051.59 936.25,2079.32 902.04,2079.32L508.75,2079.32C474.55,2079.32 446.82,2051.59 446.82,2017.39L446.82,1536.6L340.43,1536.6C306.23,1536.6 278.5,1508.87 278.5,1474.67C278.5,1440.47 306.22,1412.74 340.43,1412.74L3649.21,1412.74C3683.41,1412.74 3711.14,1440.47 3711.14,1474.67C3711.15,1508.87 3683.42,1536.6 3649.22,1536.6ZM570.67,1536.6L570.67,1955.47L840.11,1955.47L840.11,1536.6L570.67,1536.6ZM1208.29,1536.6L1208.29,2349.78L1477.73,2349.78L1477.73,1536.6L1208.29,1536.6ZM1845.92,1536.6L1845.92,2726.27L2115.36,2726.27L2115.36,1536.6L1845.92,1536.6ZM2483.54,1536.6L2483.54,3120.59L2752.98,3120.59L2752.98,1536.6L2483.54,1536.6ZM3121.16,1536.6L3121.16,3514.91L3390.6,3514.91L3390.6,1536.6L3121.16,1536.6Z" style="fill:rgb(102,102,102);fill-rule:nonzero;"/>
            </g>
        </g>
        <g transform="matrix(8.333333,0,0,8.333333,0,0)">
            <g transform="matrix(0.021913,0,0,-0.021913,361.728765,324.889937)">
                <path d="M508.75,537.61C542.95,537.61 570.68,565.34 570.68,599.54L570.68,606.11L902.05,606.11C936.25,606.11 963.98,633.84 963.98,668.04L963.98,1000.43L1539.68,1000.43C1573.88,1000.43 1601.61,1028.16 1601.61,1062.36L1601.61,1376.93L2177.31,1376.93C2211.51,1376.93 2239.24,1404.65 2239.24,1438.86L2239.24,1771.25L2814.94,1771.25C2849.14,1771.25 2876.87,1798.97 2876.87,1833.18L2876.87,2165.57L3452.57,2165.57C3486.77,2165.57 3514.5,2193.3 3514.5,2227.5L3514.5,2685.42L3615.83,2584.09C3640.01,2559.91 3679.22,2559.9 3703.41,2584.09C3727.59,2608.27 3727.59,2647.48 3703.41,2671.67L3496.37,2878.71C3472.19,2902.89 3432.98,2902.89 3408.79,2878.71L3201.7,2671.67C3177.52,2647.49 3177.52,2608.28 3201.7,2584.09C3213.79,2572 3229.64,2565.95 3245.49,2565.95C3261.34,2565.95 3277.19,2572 3289.28,2584.09L3390.61,2685.42L3390.61,2289.4L2814.91,2289.4C2780.71,2289.4 2752.98,2261.68 2752.98,2227.47L2752.98,1895.08L2177.28,1895.08C2143.08,1895.08 2115.35,1867.36 2115.35,1833.15L2115.35,1500.76L1539.65,1500.76C1505.45,1500.76 1477.72,1473.04 1477.72,1438.83L1477.72,1124.26L902.04,1124.26C867.84,1124.26 840.11,1096.53 840.11,1062.33L840.11,729.94L508.75,729.94C474.55,729.94 446.82,702.21 446.82,668.01L446.82,599.51C446.82,565.33 474.55,537.61 508.75,537.61Z" style="fill:rgb(102,102,102);fill-rule:nonzero;"/>
            </g>
        </g>
    </g>
</svg>
